<?xml version="1.0" encoding="utf-8"?>
<!-- Generator: Adobe Illustrator 28.0.0, SVG Export Plug-In . SVG Version: 6.00 Build 0)  -->
<svg version="1.1" id="Layer_1" xmlns="http://www.w3.org/2000/svg" xmlns:xlink="http://www.w3.org/1999/xlink" x="0px" y="0px"
	 viewBox="0 0 468 239" style="enable-background:new 0 0 468 239;" xml:space="preserve">
<style type="text/css">
	.st0{fill:#234877;}
	.st1{fill:#666C96;}
	.st2{fill:#D28F8D;}
	.st3{fill:#BB9400;}
	.st4{fill:#840000;}
	.st5{fill:#677D00;}
</style>
<g transform="translate(0,239) scale(0.016963,-0.016963)">
	<path class="st0" d="M13728,10231c-34-19-84-21-109-5c-6,4-15,1-19-5c-5-9-14-9-35,1c-22,10-29,10-33,0c-2-6-11-12-21-12
		c-9,0-23-6-29-12c-10-10-17-10-32,0c-27,16-55,15-190-7c-113-19-180-42-180-63c0-5-7-8-15-5c-8,4-17,2-20-3c-4-6-13-10-21-10
		s-26-11-40-25s-30-25-37-26c-25-2-62,3-70,10c-4,4-33,4-65,0c-63-9-100,6-109,42c-6,20-20,24-39,11c-6-4-22-32-35-62
		c-34-81-57-108-119-137c-60-29-120-82-120-107c0-9-10-31-22-47c-18-24-23-44-23-94c0-38-5-69-12-76s-13-18-13-24c0-5-16-24-36-40
		c-20-17-45-38-56-48c-23-21-80-47-103-47c-22,0-36-16-62-72c-13-27-27-48-31-48c-27,0-82-82-82-123c0-24-26-64-66-102
		c-12-11-32-47-45-80c-12-33-30-66-40-72c-9-7-20-29-24-50c-3-21-9-49-12-62c-4-17-2-22,8-19c7,2,24-7,36-20c23-25,30-52,14-52
		c-17,0-22-50-6-73c21-30,19-116-5-177c-11-28-20-62-20-77c0-30-49-113-67-113c-7,0-13-4-13-10c0-5,7-10,15-10c9,0,20-12,26-27
		c6-16,15-36,20-45c5-10,5-19-1-23c-6-3-10-27-10-53c1-39,6-52,30-76c33-32,39-49,14-39c-13,5-15,2-9-18c11-35,18-39,40-22
		c14,11,16,17,8,20c-15,5-18,33-4,33c5,0,14-13,20-30c5-16,15-30,20-30c6,0,11-7,11-15s7-15,15-15s15-3,15-8c0-4,23-31,50-61
		c32-35,50-63,51-80c1-42,7-64,20-71c6-4,8-13,5-19c-4-6-3-11,3-11s8-6,6-12c-3-8,12-20,37-31c42-17,77-45,197-153
		c121-109,151-118,242-74c96,46,247,50,331,9c11-5,28-3,45,6c92,46,161,75,181,75c12,0,25,7,28,14c7,19,88,36,181,38
		c59,2,75-1,93-17c25-23,60-87,60-109c0-8,10-25,23-36c17-17,30-20,57-15c19,3,53,8,75,10c22,3,54,6,72,8c26,4,33,0,37-19
		c3-12,15-26,26-29s20-12,20-19c0-8,6-19,14-25c19-16,10-113-15-163c-13-25-15-38-7-40c7-3,9-11,3-24c-4-10-10-39-12-64
		c-5-43-18-64-35-54c-13,8-9-20,6-52c8-16,22-47,32-69s35-56,54-75c71-69,160-201,160-238c0-12,5-24,10-27c6-4,8-10,5-15s5-33,19-62
		c13-29,32-77,43-106c18-52,18-54-1-67c-18-14-18-17,14-97c22-56,32-98,31-128c-2-52-18-100-35-100c-19-1-65-84-72-131
		c-8-60-34-149-42-149c-13,0-7-184,7-217c7-18,17-33,20-33c10,0,53-89,96-195c9-22,28-60,43-85c21-36,27-59,28-115c1-38,6-92,12-120
		c6-27,18-90,27-139c19-103,33-135,85-192c24-26,45-65,60-110c24-74,57-146,71-155c5-3,12-26,15-52c6-39,4-47-9-47c-8,0-17-6-20-12
		c-4-14,12-48,27-59c5-4,7-18,4-32c-7-34,8-58,22-37c6,10,10,11,10,3c0-7,6-13,13-13c8,0,22-9,32-20c22-25,42-25,67-3
		c12,11,34,17,60,16c23-1,51,5,65,14c29,19,101,24,156,11c26-6,43-6,52,2c8,6,24,10,37,8s22,2,21,8c-1,7,17,14,41,16
		c53,6,154,72,211,136c11,13,37,40,59,60c37,36,106,134,106,151c0,13,67,81,80,81c11,0,29,37,54,115c18,56,22,130,6,120
		c-18-11-10,13,13,40c12,14,54,38,92,54c51,20,76,37,93,61c14,21,19,37,13,43s-6,19,1,36c13,32,11,112-2,125c-6,6-10,15-10,20
		c0,6,5,4,10-4c8-12,10-11,10,8c0,12-5,21-12,20c-7-2-12,11-13,32c-1,19-7,36-14,38c-6,2-11,14-11,26c0,26,90,126,114,126
		c9,0,16,4,16,8s8,19,18,32c36,49,73,78,129,101c32,12,60,26,63,29c3,4,12,11,21,16c26,14,93,105,107,146c10,29,10,47,2,80
		c-7,24-11,99-10,173c3,167,4,160-23,172c-19,9-28,26-40,80c-22,87-21,100,3,106c11,3,20,11,20,17c0,7-7,10-15,6c-20-7-32,21-18,43
		c8,13,4,25-18,52c-16,18-29,41-29,49c0,21,33,114,43,121s56,113,64,147c3,12,15,27,26,33c31,17,83,73,103,110
		c43,85,178,230,260,282c54,34,213,208,214,234c0,4,16,33,35,63s35,62,35,72c0,20,61,151,73,156c4,2,7,8,7,14c0,5,11,32,25,60
		c14,27,25,65,25,85c0,26,5,36,20,40c21,6,27,19,10,25c-9,3-14,56-8,92c5,28-37,40-59,17c-22-22-108-52-129-44c-8,3-26,0-39-7
		s-34-10-46-7c-13,4-32-2-49-15c-20-14-38-19-61-16c-22,3-44-1-64-13c-52-32-90-19-130,44c-10,15-28,30-42,33l-24,6l23,12
		c38,19,34,48-14,98c-24,25-50,55-58,67c-8,11-19,21-25,21c-5,0-18,14-27,30c-10,17-25,33-35,37s-24,13-31,20c-7,6-19,10-26,7
		c-9-3-15,4-18,20c-4,18-1,26,9,26c12,0,12,2-1,15c-19,20-23,19-30-7c-6-23-7-23-21-3c-9,11-20,38-25,60c-28,115-42,144-91,182
		c-56,44-70,76-73,173c-2,38-9,76-15,84c-7,9-14,27-15,41c0,14-3,25-6,25s-24,17-48,38c-47,42-75,112-44,112c11,0,8,7-11,24
		c-14,13-38,50-55,82c-16,33-39,76-51,97c-11,21-21,43-21,50s-8,24-17,37c-10,14-19,33-20,43c-2,11-19,37-38,60c-19,22-35,51-35,63
		c0,13-4,25-9,29c-6,3-13,37-17,75c-3,38-12,77-19,87c-26,35-145,23-189-19c-12-11-29-17-41-14c-11,2-40,10-65,15c-25,6-54,15-65,20
		c-36,16-103,29-128,24c-19-4-27,0-32,16s-15,21-38,21c-54,0-104,19-110,40c-3,12-14,20-25,20c-12,0-24,5-27,10c-15,24-110,2-155-36
		c-31-27-40-72-21-103c16-26-24-80-60-81c-8,0-33,13-55,28c-41,30-104,52-145,52c-35,0-66,25-74,61c-5,20-16,34-33,41
		c-15,6-40,17-56,26c-18,9-52,15-82,14c-33-1-66,6-93,18c-40,20-67,51-54,64c3,3-1,6-10,6s-17-4-17-10c0-17-29-11-40,9
		c-8,16-4,24,20,45c17,14,37,23,45,20c8-4,15-1,15,6c0,6-5,8-10,5c-7-4-8,7-4,33c5,34,3,42-15,51c-25,14-27,36-5,58c8,9,13,22,10,30
		s-1,11,4,8c6-3,10-2,10,3c0,19-14,21-32,5s-19-16-24,4c-5,17-29,32-54,33C13767,10250,13748,10241,13728,10231z M15636,7002
		c8-11,9-21,2-29c-5-7-7-16-4-21c6-11-15-62-26-62c-5,0-8-5-8-11c0-7-8-18-17-25c-17-13-17-15,0-28c25-20,10-26-43-16
		c-27,5-50,4-57-1c-19-16-24,6-18,78c10,107,11,110,52,123c21,7,42,16,47,20C15575,7041,15620,7024,15636,7002z M15290,6618
		c0-15,5-30,11-33c6-4,8-14,5-22s-1-24,5-36c9-16,9-22,0-25c-20-7-12-42,13-51c24-10,36-30,36-62c0-11,11-42,25-69c31-61,31-62,0-48
		c-16,7-24,17-20,26c3,7-2,23-10,35s-15,28-15,35c0,8-13,30-30,49c-16,18-31,41-32,51c0,9-2,31-4,47c-2,17-5,66-7,110
		c-3,72-2,77,9,50C15283,6659,15289,6633,15290,6618z M15650,6160c6-11,12-41,14-65c1-25,8-51,14-57c15-15,16-55,2-63
		c-14-9-6-148,9-153c6-2,11-8,11-13c0-6-4-7-10-4c-5,3-10,1-10-4c0-6-5-11-11-11s-8,9-4,20c4,12,2,26-3,33c-10,13-25,90-23,122
		c7,119,5,153-6,175c-7,14-13,28-13,33C15620,6188,15640,6179,15650,6160z"/>
	<path class="st0" d="M16760,5958c-8-13-15-38-17-57c-3-42-9-48-33-33c-16,10-20,10-20-2c0-8,6-17,13-20c6-3,2-3-10,0
		c-23,5-27-1-24-38c1-9-3-19-9-23c-5-3-10-15-10-25c0-13-5-17-15-14c-9,4-15,0-15-9c0-20-71-70-125-88c-22-7-44-17-49-21
		c-6-4-20-8-33-8c-18,0-23-5-23-27c0-16-9-41-19-57c-20-30-20-54,0-169c12-67,12-69-17-125c-16-31-33-60-37-63c-35-25-48-116-23-163
		c8-16,12-44,9-70s-1-46,6-50c6-4,11-15,11-25c0-22,30-51,53-51c9,0,17-4,17-10c0-15,52-11,74,5c11,8,32,15,47,15c30,0,69,40,69,69
		c0,9,6,25,14,36c7,11,19,45,26,75c8,30,22,71,31,91c10,20,24,58,30,85c7,27,29,92,50,146c21,53,41,114,44,135c12,72,15,83,28,80
		c12-2,13,7,1,83l-7,45l20-24l20-25l17,32c12,24,14,37,6,51c-5,11-10,40-10,64s-5,59-11,78c-14,44-53,128-59,129
		C16777,5980,16768,5970,16760,5958z"/>
</g>
<g transform="translate(0,239) scale(0.016963,-0.016963)">
	<path class="st1" d="M17725,13638c-68-17-73-19-50-28c19-8,19-9-2-9c-33-1-38-20-12-47c25-26,45-31,52-11c4,10,6,10,6,0
		c1-7,8-13,16-13s15,6,15,13c0,8,3,8,9-2c5-8,16-11,25-8c9,4,36,0,59-8c46-15,187-35,254-35c45,0,68,18,34,27c-12,3-21,13-21,23
		c0,23-24,31-102,36c-79,5-102,12-89,28c8,9-5,15-52,25C17769,13649,17767,13649,17725,13638z"/>
	<path class="st1" d="M18374,13421c-27-12-38-39-23-57c9-12,3-14-34-14c-25,0-47-4-49-9c-1-5-20-12-41-15c-28-4-36-3-31,5
		c10,17-184,3-201-15c-7-7-44-16-81-19c-37-4-78-14-91-23c-15-9-34-13-49-10c-14,4-24,2-24-4c0-5-7-10-15-10s-15-8-16-17
		c0-11-3-13-6-5c-7,18-40,15-47-4c-4-9-3-20,0-23c4-3,9,0,11,6c3,9,10,9,28-3c13-8,31-14,41-12c9,2,19-3,21-9c6-16-73-18-82-3
		c-3,6-14,10-23,10c-14,0-14-2-3-9c21-13-10-20-108-23l-84-2l29-23c16-13,39-33,50-44c13-13,40-23,68-26c25-3,46-9,46-14
		c0-4,8-10,18-12c9-3,2-5-16-6c-19,0-46,5-60,13c-24,13-86,27-188,43c-20,3-35-1-43-11c-12-14-10-16,10-17c26-1,20-4-25-14
		c-28-6-28-7-9-20c10-7,35-18,54-24c33-11,33-11-14-7c-49,4-76,24-77,57c0,18-41,59-58,59c-7,0-21,6-32,12c-14,9-22,10-31,1
		c-8-8-2-14,21-22c18-6,37-8,43-4c5,3,7,1,3-5c-3-6-2-13,4-17c18-11,10-23-20-30c-16-4-30-13-30-20s-5-15-12-17c-6-2,14-17,46-33
		c54-27,56-30,50-61c-5-26-2-35,15-46c12-7,21-19,21-27c0-11,15-12,73-8c62,5,67,4,34-5c-51-14-57-34-21-63c23-19,27-26,17-36
		c-7-7-13-23-13-35c0-17-8-24-30-29c-18-4-30-13-30-22c0-12-7-14-32-9c-18,3-37,11-43,17c-7,7-5,8,6,4s21,5,34,35c10,22,21,40,25,40
		c5,0,7,15,6,33c-1,28-7,35-43,51c-24,10-43,24-43,30s-10,27-22,46s-23,43-25,53c-4,25-26,45-58,53c-19,5-23,10-16,17
		c15,15,13,48-3,70c-10,13-35,21-83,26c-41,5-54,9-33,10c33,2,34,2,16,16c-25,19-100,21-94,3c3-7-1-19-9-26c-7-7-13-31-13-52
		c0-34-4-42-30-55c-37-19-39-42-5-55c19-7,25-17,25-39c0-32,22-56,43-48c8,3,27-4,43-14c16-11,39-24,52-29c22-9,29-25,15-33
		c-5-3-39,8-78,24c-101,41-118,39-72-9c20-21,37-42,37-47c-2-35-111-112-212-150c-26-10-52-23-58-30c-7-8,7-49,46-136
		c57-126,83-238,84-351c0-60,14-96,51-130c52-48,28-128-39-128c-16,0-37-9-47-20c-17-18-17-20,6-49c13-16,35-46,49-65
		c34-48,67-48,109-1c39,45,70,46,95,4c16-26,16-37,6-77c-10-43-10-48,9-62c66-49,66-49,53-58c-17-12,4-30,55-47c67-23,51-81-20-72
		c-27,4-40,1-44-9c-7-18-31-18-49,1c-9,8-24,15-35,15c-10,0-19,5-19,11c0,8-15,10-48,5c-36-5-62-1-107,16c-65,23-188,29-208,9
		c-6-6-34-11-61-11c-28,0-68-5-89-11c-37-10-37-10-31-52c8-53,18-72,61-120c27-30,33-45,31-73c-2-29,3-40,25-56c15-11,27-26,27-33
		c0-18,34-28,70-20c23,5,32,2,45-19c16-23,29-119,15-111c-3,2-29,6-57,9c-46,4-52,2-62-21c-6-13-9-29-6-34c4-5-8-9-25-9
		c-28,0-30-2-20-20c6-11,17-20,25-20s22-13,32-30c9-16,21-30,25-30s8-9,8-21c0-13,4-18,12-13c6,4,16,0,22-8c7-9,23-18,36-20
		c34-4,39-14,33-59c-3-22-2-39,4-39c16,0,45-61,39-83c-7-29,16-73,35-69c12,2,14-5,11-30c-4-25-2-30,11-25c25,9,44-24,55-93
		c6-36,13-72,16-80c5-13-8-19-62-33c-82-19-120-12-177,33c-21,17-48,30-60,30c-30,0-55,30-62,75c-4,26-2,40,8,45c8,6,13,28,14,57
		c0,46,1,48,28,48c15-1,27,4,27,10c0,7-14,9-33,7c-48-5-251,99-337,173l-65,57l-54-6c-48-6-59-3-100,23c-25,16-62,32-81,36
		s-50,15-68,26c-25,14-38,16-59,8l-26-10l23-24c12-13,48-36,79-51c43-21,62-37,75-64c34-70-10-100-149-105c-53-2-95,1-95,6
		s-13,9-29,9c-17,0-33,5-36,10c-4,6-15,8-25,5c-13-4-22,1-30,15c-8,15-17,19-32,14c-15-4-26,0-37,13c-15,18-23,19-98,13
		c-80-8-140-31-169-66c-8-10-28-11-83-5c-74,7-104-2-79-27c24-24-14-38-107-40c-49-1-91-6-93-11c-2-6-10-7-18-4s-14,0-14-6
		s7-11,15-11c9,0,15-9,15-25c0-23,8-29,37-26c6,1,10-6,8-16c-1-10,0-22,4-28c3-5,6-19,8-30c1-11-1-14-3-7c-9,20-31,13-29-10
		c1-15,12-26,36-34c19-7,28-13,21-13c-10-1-10-5,0-23c7-13,17-26,22-29c4-4,0-12-10-18c-20-11-16-13,31-14c16,0,17-1,3-4
		c-10-3-18-9-18-15c0-5,7-8,15-4c8,3,15,1,15-4c0-6,7-10,15-10s15,5,15,11c0,16,47,2,70-21c15-15,31-20,60-18c39,3,45,10,41,46
		c-4,29,77,3,123-40c30-27,113-17,139,18c21,27,38,30,67,12c15-10,23-9,40,7c25,22,39,13,16-11c-12-11-14-20-7-27c6-6,6-18,1-32
		c-5-12-5-26-1-31c12-13,21-80,12-90c-13-15-49-125-61-185c-12-62-34-90-71-90c-13-1-39-3-56-5c-29-4-33-9-33-35c0-48,20-115,41-138
		c10-11,19-27,19-34c0-15,72-97,85-97c3,0,13,7,21,15c9,8,24,15,35,15c10,0,19-7,19-15s5-15,10-15c6,0,10-5,10-10c0-6,8-19,18-30
		c9-10,26-36,37-57s28-47,38-58c24-26,50-75,43-82c-9-9,27-63,41-63c8,0,16-7,19-15c4-8,11-12,17-8c5,3,7,1,4-4c-4-6,2-22,13-36
		s20-32,20-40c0-9,5-19,11-23c7-4,9-21,5-44c-4-28-2-41,10-51c8-7,13-21,11-31c-4-12,3-24,18-34c14-9,27-23,30-32c2-10,18-26,34-37
		c16-10,28-22,26-26c-3-3,7-11,20-17c19-9,25-19,25-43c0-19,7-37,18-45c9-7,17-17,17-22s17-26,38-46c20-21,37-44,37-52s4-14,9-14
		s14-14,20-32c11-31,11-31-9-13c-11,10-17,22-14,26c3,5-2,6-11,3c-10-4-15-2-13,7c2,7-5,15-14,17c-13,2-16-1-12-15c5-17,5-17-9,0
		c-8,10-18,14-20,9c-7-10,47-94,55-86c9,8,51-37,53-55c0-9,4-21,7-26c8-14,42-127,43-145c3-48,17-68,52-75c20-3,40-2,46,4
		c5,5,15,7,22,5c7-3,28,9,46,25c22,21,44,31,65,31c34,0,99,24,109,40c3,5,21,10,40,10c24,0,39,7,54,26c13,17,49,36,103,55
		c97,35,144,61,140,79c-6,27,10,48,51,65c78,32,88,35,121,35c37,0,52,13,58,50c2,19,10,26,33,28c37,5,55,19,55,43c0,22,36,49,66,49
		c19,0,21,5,20,61c-1,65,10,82,36,55c13-13,17-12,30,3c15,18,13,45-3,35c-17-10-9,15,15,43c29,35,56,87,56,108c0,9-9,15-21,15
		s-23,8-26,20c-3,11-9,20-14,20s-9,5-9,11c0,21-32,42-78,50c-90,17-134,73-134,170c0,62-12,74-33,32c-21-40-139-160-153-155
		c-7,2-12,0-12-5s-16-7-35-5s-35,8-35,13s-4,9-10,9c-5,0-10-6-10-14c0-23-20-29-39-12c-10,9-23,16-30,16c-8,0-10,7-4,23
		c11,32,4,120-10,129c-24,15-36,7-48-32l-12-40l-19,27c-20,32-23,43-8,43c6,0,10-7,10-16c0-8,5-12,10-9c17,11,11,37-10,42
		c-11,3-21,9-21,14c-1,5-2,13-3,19c0,5-10,16-21,24s-20,20-20,28c-1,7-6,12-13,11c-7-2-12,1-12,6s-9,13-20,16s-20,13-20,21
		s-4,14-8,14c-14,0-53,96-46,116c4,12,3,15-3,7s-14-9-23-3c-13,8-13,10,0,10c9,0,23,8,32,18c33,34,44,40,62,30c9-5,24-7,34-4
		c12,4,24-5,40-27c12-18,22-38,22-44s4-13,9-15c5-1,22-25,37-52c21-35,39-51,64-60c19-7,48-24,64-39s36-27,45-27c13,0,13-2,3-9
		c-10-6-3-10,22-15c20-4,34-11,31-17c-4-5-1-9,4-9c6,0,11,5,11,10c0,7,7,7,20,0c11-6,25-8,31-5c5,4,26,9,46,11c40,5,66,21,57,35
		c-8,14,34,10,43-3c4-7,13-31,18-53c13-49,51-70,144-80c75-8,106-13,141-21c43-11,130-13,130-4c0,4,18,6,40,3c24-4,40-2,40,5
		c0,6,13,7,36,2c20-5,64-4,101,2c74,11,93,7,93-22c0-13,7-20,19-20s21-10,26-27c8-34,33-63,53-63c8,0,28-13,43-30
		c41-42,82-61,121-54c31,5,32,5,14-10c-20-16-36-20-68-17c-10,1-18-3-18-10c0-19,138-149,157-149c52,2,127,70,104,93
		c-10,10-3,47,9,47c4,0,5-11,2-25c-2-15,0-25,7-25s9-5,6-10c-4-6,1-24,9-42c11-21,14-43,10-66c-4-19-2-50,4-70c26-91,45-161,57-214
		c7-31,30-89,50-130c21-40,46-89,55-108c10-19,25-61,33-94c9-32,31-81,50-110c37-55,87-173,87-203c0-26,54-109,80-123
		c29-15,65,8,73,48c7,32,42,48,79,36c15-4,19-2,16,7c-3,8-11,14-19,14c-16,0-16,8-5,48c6,20,15,27,33,27c22,0,24,3,18,29
		c-10,49-9,129,3,143c16,19,17,101,2,178c-19,107-14,136,26,126c19-5,25-2,30,19c3,14,12,25,20,25c34,0,64,24,64,52c0,15,4,28,9,28
		c16,0,116,101,148,150c17,26,48,55,70,65c21,11,48,30,61,42c23,21,25,33,20,82c-2,13,4,27,12,31s25,12,38,19c18,9,24,9,28-3
		c6-15,44-13,98,4c16,6,41,10,55,10c35,1,76,33,68,53c-3,9-2,19,2,22c5,2,11-5,14-16c3-12,10-18,15-15c11,7,22-16,22-45
		c0-24,22-61,67-112c18-20,33-42,33-48s8-9,18-7c20,6,46-17,39-35c-2-7,0-20,5-29c6-13,5-18-4-18s-9-3,0-12c10-10,15-10,20-1
		c12,18,29,2,51-48c17-37,19-58,15-121l-6-75l28-8c56-15,74-14,88,7c8,11,30,31,50,44c23,16,36,33,36,47c1,31,67-108,76-158
		c3-22,13-52,20-67c8-15,14-38,14-53c0-15,6-25,14-25s19-14,25-31c15-42,14-49-4-43c-11,5-13,2-9-10c3-9,10-16,15-16c4,0,3-14-3-31
		c-8-23-13-27-19-17c-5,7-9,9-9,3c0-19,16-34,35-32c22,2,33-29,16-46c-7-7-15-6-26,3c-9,8-15,8-15,2s8-15,17-21c19-10,24-78,10-136
		c-10-42,3-129,16-116c20,20,47,13,47-11c0-19,2-20,10-8c7,12,10,12,10,1c0-7,14-30,30-51c27-34,29-40,15-48c-15-8-15-10-1-21
		s16-11,16,5c0,17,1,17,15-2c8-12,13-40,12-63s3-45,9-49s14-26,18-49c3-24,17-54,31-69s25-37,25-49c0-16,19-35,73-71
		c79-53,97-70,93-87c-2-7-1-9,1-4c9,15,35,7,29-9c-4-12-2-15,9-10c10,4,15-1,15-14c0-11,5-20,11-20c7,0,9,9,6,21c-4,16-3,18,8,9
		c9-8,15-8,20,0c10,16-4,30-33,31c-17,1-21,3-9,6c9,2,17,11,17,19s-3,13-7,11c-5-3-9,6-9,19c-1,13-14,40-29,60c-24,31-27,44-27,107
		c1,40-4,86-11,102c-11,29-90,115-105,115c-4,0-16,14-26,31c-13,21-24,29-36,26c-31-8-57,20-71,75c-6,29-18,58-24,63
		c-15,12-28,75-16,75c10,0,9,26-2,36c-4,4-7-3-7-15c0-26-28-40-41-20c-13,19-5,103,15,169c10,30,18,82,19,115c2,58,3,60,30,63
		c25,3,27,1,27-36s1-39,35-40c43-2,75-18,75-38c0-9,7-14,18-12s22-8,34-32c10-19,17-41,18-47c0-16,36-53,51-53c5,0,7,6,3,13
		c-4,7-3,9,2,4c9-9,10-13,13-42c2-24,21-18,21,7c0,19,2,20,18,6c9-8,26-18,37-22c14-5,16-9,7-15c-18-11-14-121,5-121c7,0,18,9,25,20
		c7,12,32,32,55,46c39,22,55,47,58,89c1,6,6,9,13,7c17-3,69,25,101,54c14,13,31,24,38,24c14,0,25,52,19,92c-2,15,1,25,5,22
		c5-3,9,4,9,15s-4,22-9,25c-4,3-11,27-14,53c-3,26-13,62-21,78c-9,17-16,37-16,46c0,8-13,28-30,44c-16,16-30,34-30,41s-8,15-19,19
		c-23,7-141,120-141,134c0,6-15,26-34,46c-29,29-34,42-34,81c0,29,5,47,13,50c7,3,21,21,30,40s20,32,25,29c4-3,11,2,14,10
		s11,14,18,13c7-2,12,4,12,13c-2,21,66,45,93,34c10-4,29-7,42-6c19,2,22-1,17-14c-9-25,25-94,47-95c23,0,31,23,17,50
		c-8,15-8,20-1,16s11,1,11,13s6,22,13,22c6,1,17,2,22,4c6,1,16,3,23,3c7,1,10,7,6,14c-4,6-3,8,4,4c6-3,13-2,17,3c4,7,15,7,31,1
		c36-14,47-12,40,6c-3,8-2,12,4,9s10-1,10,5s5,8,11,4c16-9,29,16,24,46c-4,24-4,24,7-2s48-40,48-19c0,5,18,19,41,30
		c22,12,38,17,34,11c-3-5-1-10,4-10c6,0,11,5,11,10c0,6,3,9,8,9c35-6,55,4,65,30c6,17,20,32,31,35c12,3,30,19,41,36
		c11,16,25,30,32,30c16,0,36,37,27,52c-4,6-3,9,2,6c11-7,35,17,27,26c-4,3,3,6,15,6c13,0,22,6,22,16c0,8-4,13-9,10
		c-13-8-22,36-11,49c6,7,7,15,3,18c-3,4-1,7,5,7c7,0,12,9,12,19c0,11,5,23,10,26c6,3,10,17,10,30c0,34,10,55,26,55c8,0,15,6,15,13
		c5,36,4,54-4,70c-5,11-4,16,4,15c7-2,12,18,14,60c1,34-2,62-7,62c-4,0-9-4-9-10c-1-5-2-14-3-19c-2-20-16-23-32-6
		c-11,10-25,14-40,11c-34-9-21,19,17,36c30,14,36,23,19,33c-6,4-8,10-5,14c2,5-8,11-24,14c-32,7-48,32-25,41c7,3,13,0,11-6
		c-1-6,4-13,11-15c6-3,12,2,12,9c0,12-34,42-85,76c-5,4-17,19-25,33c-40,70-84,116-130,138c-45,21-49,26-43,49c3,14,19,38,35,54
		c29,29,37,44,16,32c-7-4,2,7,20,25c22,20,43,31,63,31c24,0,29,4,29,24c0,31-6,34-62,40c-25,2-55,9-66,15c-21,11-76,5-68-8
		c2-3-2-15-10-25c-12-16-18-18-39-8c-14,6-25,20-25,29c-1,30-23,50-58,51c-46,1-82,26-82,58c0,20,4,25,16,20c30-11,65,5,70,33
		c3,15,19,36,35,46c16,11,29,26,29,33c0,23,25,40,53,35c40-8,53-28,37-61c-19-37-18-45,3-61c17-12,17-15,3-30c-15-17-12-31,5-31
		c5,0,26,19,48,41c32,33,48,42,85,46c25,3,53,2,63-2c10-5,22-7,26-6c4,0,17-3,27-9c17-9,20-21,20-78c0-47,3-63,10-52c5,8,10,11,10,5
		c0-14,49-35,56-24c3,5,13,5,25-1c10-6,19-8,19-5s11-2,25-11c25-16,34-44,15-44c-17,0-11-17,18-48c42-46,51-59,45-66
		c-11-11-10-61,1-68c6-4,11-17,11-30c0-21,4-23,45-20c25,1,47,7,48,12c2,6,12,10,23,10c10,0,19,4,19,10c0,5,6,7,14,4
		c20-8,56,31,56,59c0,40-59,144-107,189c-25,24-55,53-67,66c-11,13-38,33-59,45c-20,11-44,31-52,44c-15,22-14,24,12,40
		c15,8,40,32,54,53c24,34,25,39,12,64c-17,32-14,82,5,79c6-2,12,6,12,18c0,11,4,18,9,15c5-4,14,6,19,21c6,16,11,22,11,14
		c1-11,5-10,16,5c12,15,14,16,15,3c0-22,70-42,102-30s88,77,88,101c0,27,28,130,39,144c5,6,9,52,9,101c0,50,4,101,10,115
		c7,20,4,37-15,80c-13,30-29,58-36,62c-6,4-8,10-4,14s-3,14-14,22c-37,25-76,132-49,132c20,0,98-65,104-85c3-11,21-36,39-55
		s43-56,55-81s35-58,51-72s34-41,41-61c6-20,15-36,20-36s13-15,19-33c7-19,25-47,42-63l31-29l-7,36c-7,36-6,36,21,31
		c16-3,36-15,46-26c14-17,17-18,18-5c0,19-33,59-48,59c-6,0-22,10-35,23c-14,12-36,30-50,39c-14,10-32,37-40,60c-8,24-18,51-22,61
		c-11,26,37,22,85-8c42-27,50-29,50-17c0,4-15,16-32,27c-18,10-51,37-74,59c-22,23-80,77-128,121s-94,92-102,107c-18,34-58,78-71,78
		c-6,0-21,12-34,28c-36,41-55,53-73,46c-14-5-11-10,15-26c31-19,31-19,13-39c-17-19-17-22-3-32c21-16,53-66,47-73c-8-8-58,49-58,66
		c0,5-28,24-62,41c-35,16-76,37-91,45c-33,18-121,26-108,10c10-13-4-56-19-56c-5,0-10,9-10,20s-7,20-15,20s-15,9-15,20s-5,20-11,20
		s-9,6-6,14c8,21-28,50-50,41c-10-5-23-7-30-6c-6,1-14-3-18-9c-6-9,22-14,70-12c11,0,14-2,7-5c-10-4-9-9,4-24c9-10,12-19,6-19
		c-5,0-8-10-5-22c3-15-2-11-15,12c-17,31-25,36-71,41c-86,11-87,13-49,61c43,55,59,86,46,90c-11,4,31,98,44,98c4,0,3,11-2,25
		c-8,20-6,27,5,31c8,4,15,17,15,30c0,16,8,27,21,32c33,13,176,15,184,3c3-6,15-11,26-11s18,3,15,8c-2,4,32,6,76,5c76-3,80-2,75,18
		c-4,15-1,19,11,15c40-11,88-20,96-17c6,1,21,0,34-4c19-5,21-9,12-20c-13-16-2-25,32-25c79,0,98,2,98,11c0,6,11,8,28,4
		c16-3,42-1,57,5c35,13,24,24-41,41c-44,11-50,25-32,71c5,14,10,41,11,59c2,31,5,33,42,37c22,2,49,3,60,3c11-1,32-1,48-2
		c17,0,27-5,27-14c0-20,38-57,51-50c5,4,18-4,29-17c13-15,19-18,20-9c0,8,3,11,7,7c4-3,12,8,17,26c9,25,17,34,39,36
		c24,3,40,22,17,22c-5,0-21,12-36,27c-26,26-26,27-5,34c24,9,54,1,45-12c-6-11,47-79,62-79c19,0,11-33-13-55c-16-14-21-28-18-44
		c2-14,0-30-6-38c-7-7-9-27-5-43c7-37-8-80-29-80c-8,0-15-4-15-10c0-5-10-10-22-10c-23,0-23,0,3-24c19-18,25-32,22-49
		c-8-42,44-110,160-210c27-23,68-59,90-81c23-21,62-55,87-75c24-20,55-48,68-63s37-37,52-48l29-21l16,31c18,35,13,81-11,101
		c-18,15-18,45,0,52c8,3,25,3,38,0c19-4,15,3-21,34c-35,32-42,44-36,62c6,19,11,21,42,15c30-6,35-4,31,12c-2,10-21,30-42,44
		c-61,42-85,103-31,78c14-6,28-8,32-5c9,10-37,57-56,57c-22,1-71,45-71,64c0,21-37,39-66,32c-36-9-76,33-68,72c5,23,0,35-20,56
		c-25,24-25,31-3,27c4-1,17,4,29,10c11,6,18,7,14,1c-3-5,1-12,9-16c16-6,29,9,21,23c-13,21,24,17,44-4c25-26,40-25,40,4
		c0,38,93,41,169,6c58-27,69-27,53,1c-7,13-4,23,14,41c13,13,27,35,30,48c3,14,17,28,35,34c16,5,29,15,29,20c0,6,6,11,14,11
		c7,0,20,7,27,16c13,16,52,15,132-2c23-5,27-3,27,14c0,13-9,23-22,28c-13,3-30,12-38,19s-26,16-40,21c-39,14-150,78-150,87
		c0,4,9,17,19,29c26,27,11,52-41,67c-21,7-36,16-33,21c3,6,32-3,63-19c48-24,69-29,127-28c58,0,79-4,120-26c27-15,60-27,72-27
		c11,0,49-9,82-19c57-18,62-18,72-2c9,14,10,14,5-1c-6-20,19-24,44-8c13,8,11,11-7,16c-13,4-20,10-17,15s0,9-5,9c-6,0-20,9-30,19
		c-20,20-20,20,6,23c15,2,29,9,31,17c3,10,0,12-11,8c-10-4-14-2-11,6c2,7-8,20-24,29c-47,28-218,68-290,68c-50,0-79,6-117,24
		c-54,27-503,139-650,163c-49,8-128,16-175,18c-128,6-243,15-265,22c-16,4-15,1,8-21c15-14,32-26,37-26s26-10,47-22l38-23l-28-3
		c-16-2-34,1-41,7s-34,14-60,17c-26,4-49,10-51,14c-3,5,4,6,15,3s20,0,20,6s-3,10-7,10c-5-1-24,0-43,1l-35,3l35,7l35,7l-32,3
		c-62,6-68,5-68-10c0-11-11-15-45-14c-81,3-265,4-280,2c-35-5-120,14-120,28c0,19-47,41-127,60c-55,13-99,15-224,10s-162-4-191,8
		c-19,8-56,17-83,21c-69,8-96,16-89,26c16,26-183,52-213,28c-9-8-14-9-10-2c11,17-11,21-198,38c-203,18-196,18-165,0l25-14l-37-1
		c-29,0-36-3-32-15c4-8,18-15,32-15s22-3,18-7c-3-4,6-13,21-20l28-13l-30,6c-16,4-39,6-50,6c-11-1-48-2-83-2c-34,0-73-5-85-9
		c-14-5-42-5-68,1c-24,5-54,10-66,11c-11,1-19,5-16,10c2,4-1,7-8,7c-6,0-9-8-6-17c21-67,22-63-14-57c-52,10-130,48-167,83
		c-18,17-40,31-48,31s-14,6-14,13c0,28-181,79-196,55c-3-4-11-5-17-1c-7,4-23,9-37,10c-14,2-45,8-70,14c-32,7-46,7-48,0
		c-2-6-8-9-13-5c-5,3-9,0-9-5c0-6,9-16,20-23s20-15,20-18c0-5-85-4-180,4c-30,2-64,4-75,5c-15,1-17,3-6,10c8,5,9,11,3,15
		c-14,8-256,11-269,3c-15-9-83,31-83,49c0,10-13,14-46,14c-37,0-47-4-51-19c-3-13-11-17-24-14c-10,3-26,2-35-1c-13-5-14-9-4-20
		c9-12,5-17-27-25c-48-14-96-14-88-1c3,6,17,10,30,10s28,6,32,13c10,15,36,31,95,60c26,12,50,28,53,36c9,23-35,62-65,58
		c-14-2-19-2-12,0c10,4,9,8-5,19c-21,16-37,18-28,4c10-16-7-12-27,7c-15,13-41,17-141,17c-67,1-133-3-146-8c-18-6-22-5-19,5
		c7,20-10,49-28,49c-8,0-12-4-9-10c10-15-33-12-59,5C18539,13423,18404,13434,18374,13421z M19150,13180c11-7,7-10-17-10
		c-18,0-33,5-33,10C19100,13193,19130,13193,19150,13180z M17576,12799c24-27,12-33-16-9c-13,11-29,20-36,20s-15,4-18,8
		C17496,12835,17559,12817,17576,12799z M23815,12660c3-6-1-7-9-4c-18,7-21,14-7,14C23805,12670,23812,12666,23815,12660z
		 M23625,12490c8-13-15-13-35,0c-12,8-11,10,7,10C23609,12500,23622,12496,23625,12490z M20147,11763c40-93,45-112,33-130
		c-10-16-11-16-6,0c3,9,1,17-4,17c-6,0-10-9-10-20c0-12,7-20,18-20c10,0,13-3,6-8c-6-4-14-16-18-27c-3-13-23-27-49-36
		c-36-14-42-19-39-42c3-22-2-27-37-38c-30-9-47-9-63-1c-22,10-22,11,6,11c28,1,66,25,66,43c0,4,9,17,21,29c11,11,18,27,15,35
		c-3,7,0,17,7,21c33,21,42,100,21,176C20105,11801,20134,11793,20147,11763z M18224,11041c3-5-1-11-9-15c-8-3-15-12-15-21
		c0-8-7-15-15-15c-10,0-15-10-15-31c0-27-2-30-15-19c-18,15-20,60-3,60c6,0,9,3,6,6c-9,9,25,42,44,43
		C18211,11050,18221,11046,18224,11041z M18283,11043c-7-2-19-2-25,0c-7,3-2,5,12,5S18289,11046,18283,11043z M18420,11030
		c11-8,7-9-15-4c-37,8-45,14-19,14C18396,11040,18412,11035,18420,11030z M18480,11031c0-6-9-9-20-8s-20,5-20,9s9,8,20,8
		S18480,11036,18480,11031z M17277,11014c-3-3-12-4-19-1c-8,3-5,6,6,6C17275,11020,17281,11017,17277,11014z M17200,10970
		c0-5-5-10-11-10c-5,0-7-5-4-10c4-6,15-8,26-5c14,5,20,0,25-19c3-14,12-30,20-37c11-9,11-16-2-41c-10-20-20-28-30-24c-9,3-22,6-30,6
		c-10,0-14,14-14,54c0,30-4,58-10,61c-6,4-5,11,3,20C17187,10982,17200,10984,17200,10970z M17165,10920c10-33-6-44-21-15
		c-17,34-17,35,0,35C17152,10940,17161,10931,17165,10920z M17135,10842c-6-6-25,45-24,66c0,9,7-1,15-22
		C17134,10864,17138,10845,17135,10842z M16861,10618c6-13,25-36,43-51c17-16,25-26,18-22c-8,4-20-1-28-11c-11-14-17-15-20-6
		c-3,6-15,12-26,12c-26,0-47,27-48,62C16800,10643,16842,10654,16861,10618z M15620,9475c0-8-4-15-10-15c-5,0-7,7-4,15
		c4,8,8,15,10,15S15620,9483,15620,9475z M19470,8720c0-5-2-10-4-10c-3,0-8,5-11,10c-3,6-1,10,4,10
		C19465,8730,19470,8726,19470,8720z M16224,8442c3-5-1-9-9-9s-12,4-9,9c3,4,7,8,9,8S16221,8446,16224,8442z M20915,7961
		c3-5,1-12-5-16c-5-3-10,1-10,9C20900,7972,20906,7975,20915,7961z M21125,7870c10-11,13-20,7-20s-16,9-22,20s-9,20-7,20
		S21115,7881,21125,7870z"/>
	<path class="st1" d="M20570,13201c0-17,29-33,48-27c13,4,22,1,26-9s-1-15-15-15c-12,0-17-4-13-11c3-6,16-8,29-5c12,3,60,1,105-5
		c82-10,108-6,80,11c-25,16-116,40-152,40c-18,0-42,7-52,15C20604,13211,20570,13215,20570,13201z"/>
	<path class="st1" d="M22790,10934c0-8-4-12-10-9c-5,3-10,1-10-5c0-7,6-10,14-7c25,10,91-87,80-118c-3-7-1-16,5-20
		c22-13,10-23-18-15c-37,10-46,2-25-21c14-16,15-19,2-24c-9-4-15-19-15-38c0-18,2-26,4-20c7,19,50-13,57-43c7-27,33-32,42-9
		c4,8,12,15,20,15c27,0,14,19-26,36c-22,10-40,21-40,26c0,11,14,10,27-3c8-8,16-7,31,2c16,10,29,9,75-10c31-13,61-20,68-15
		c8,4,9,3,5-4s-2-12,4-12c8,0,10,9,6,24c-9,38,3,56,38,56c33,1,66,20,66,38c0,6-7,9-16,5c-12-5-15,2-13,40c2,32,6,44,16,40
		c7-3,13-1,13,5c0,5-9,12-20,15c-17,4-21-1-26-34c-7-41-24-44-24-3c0,29-16,32-25,4c-6-19-8-19-78,7c-65,23-113,47-127,63
		c-10,12-78,50-89,50C22795,10950,22790,10943,22790,10934z"/>
	<path class="st1" d="M22940,10595c0-9-5-13-11-9c-8,5-10-1-5-19c3-15,1-29-5-32c-7-5-5-13,6-25c8-9,13-24,9-34c-4-11-1-16,10-16
		c8,0,20-9,26-20c16-31,19-123,4-140c-13-15-14-19-14-45c0-9-12-21-27-28c-16-6-31-16-35-22c-11-14-29,16-22,37c7,22-7,29-28,14
		c-14-10-14-15-2-36c7-14,13-19,14-11c0,8,2,12,5,9c6-6-18-58-27-58c-12,0-10-38,2-42c6-2,6-9,0-17c-7-12-11-12-24-2
		c-12,10-26,11-65,1c-27-6-60-11-73-10c-42,4-58,0-58-12c0-17-50-73-72-81c-10-3-18-15-18-26s-6-25-12-31c-7-6-23-19-36-29l-23-20
		l27-30c15-17,31-28,37-24c6,3,7,2,4-4c-4-5,6-28,21-49s27-46,27-54s10-16,23-18c12-2,22-9,22-15c0-7,10-1,23,13c19,21,22,35,20,90
		c-1,37-2,70-4,75c-4,25,3,24,32-4c33-33,65-42,55-15c-8,20,11,54,29,54c8,0,15-4,15-10c0-19,15-10,27,16c6,14,10,31,7,39
		c-3,7-1,16,5,20c6,3,11,0,11-8c0-18,40-54,64-59c15-2,21,5,28,30c5,18,15,32,23,32c22,0,18,28-5,35c-11,3-20,10-20,15c0,4,9,6,20,3
		s20-8,20-12c0-3,20-6,45-6c41,0,45,2,45,25l1,25l15-28c17-32,38-26,31,9c-5,28,14,32,37,8c15-14,17-14,32,0c8,9,12,21,9,26
		c-4,6-2,17,4,24c8,10,6,19-9,36c-11,13-21,32-21,44c-1,12-3,28-4,36s-3,22-4,31c0,9-10,26-21,39s-20,29-20,37c0,10,6,12,20,8
		c11-4,20-2,20,4s-4,11-10,11c-5,0-10,22-10,49c0,47-3,53-65,117c-36,37-65,74-65,81s-6,13-14,13s-21,3-30,6
		C22945,10610,22940,10607,22940,10595z M22990,10566c0-2-7-6-15-10c-8-3-15-1-15,4c0,6,7,10,15,10S22990,10568,22990,10566z
		 M22807,10005c8-22,0-27-31-19c-21,5-24,9-15,20C22776,10025,22799,10024,22807,10005z M22734,9975c-7-17-30-20-39-6
		c-4,8,9,15,37,20C22736,9989,22737,9983,22734,9975z M22647,9958c-3-8-6-5-6,6c-1,11,2,17,5,13C22649,9974,22650,9965,22647,9958z
		 M22676,9953c-7-27-31-53-48-53c-4,0-7,6-5,13c1,7-11,13-30,15c-18,2-33,8-33,14c0,7,17,8,49,4c44-6,50-4,56,14
		C22675,9990,22683,9984,22676,9953z"/>
	<path class="st1" d="M15534,10095c-10-8-36-15-56-15c-21,0-38-4-38-10c0-5-9-10-21-10c-30,0-20-32,15-48c25-13,31-12,57,7
		c15,12,33,21,38,21c6,0,8,6,5,14c-3,9,3,20,15,28c21,13,28,28,13,28C15557,10110,15545,10103,15534,10095z"/>
	<path class="st1" d="M22123,8618c-9-14-7-158,2-192c6-19,5-20-8-3c-32,39-36,7-10-74c17-52,43-89,63-89c6,0,10,8,10,17s3,13,7,10
		c3-4,1-18-7-31c-14-26-7-61,10-51c5,3,10,1,10-4c0-17-30-13-36,4c-4,8-13,15-21,15c-10,0-6-11,15-37c16-21,37-52,46-70
		c21-42,36-50,52-28c17,22,8,64-16,86c-18,16-18,17,5,29c25,14,58,4,34-10c-10-7-10-12,1-25c13-16,15-16,26,0c11,15,13,15,22-2
		c6-10,14-14,18-10c5,4,2,17-5,28c-23,38-5,29,41-20c42-45,49-61,26-61c-4,0-7,3-6,8c3,10-25,52-34,52c-14,0-8-31,7-36
		c10-4,15-20,15-48c0-27,3-36,9-27c7,11,13,11,32-3c35-24,41-20,23,15c-9,19-12,34-6,38c5,3,11,18,14,33c4,22,0,29-23,39
		c-31,12-39,29-14,29c8,0,15-4,15-10c0-12,10-13,29-1c10,7,11,13,2,30c-14,24-31,28-31,6c0-14-3-14-30,0c-17,9-34,13-39,10
		c-5-2-12,2-15,11c-5,13-15,15-50,10c-34-5-45-4-49,9c-6,14,5,19,41,18c6-1,12,2,12,5c0,10-35,31-52,32c-20,0-25,14-20,52
		c3,18,10,28,22,28c25,0,36,84,14,117c-8,13-16,42-16,64c0,39-1,39-33,33c-19-3-35-1-39,5C22176,8634,22133,8633,22123,8618z"/>
	<path class="st1" d="M22470,8089c0-10,13-28,29-40c17-12,27-27,24-36c-4-11-8-10-18,4c-19,25-27,11-20-31c4-21,13-36,21-36
		c9,0,14-11,14-29c0-22,7-31,28-40c16-7,29-17,29-24s3-22,7-33c5-18,3-21-19-21c-14,0-25,3-25,8s-4,9-10,9c-5,0-7-13-3-32
		c5-23,3-29-6-24c-8,5-14,0-18-13c-7-26-11-26-33,1c-15,20-21,21-44,10c-14-6-26-18-26-27s-9-15-25-15c-14,0-27-6-29-12
		c-2-7-7-27-13-43c-5-17-8-36-5-43c6-18,32-14,32,6c0,9,7,26,15,36c15,19,15,19,15-2c0-23,14-30,25-12c3,5,12,7,20,3
		c10-3,15,2,15,16c0,18,3,20,19,11c16-8,20-20,19-62c-1-45,2-54,27-74c16-13,38-24,50-26s21-12,23-26c4-24,26-25,28-1c0,8,4,22,8,32
		c5,11,3,29-5,45c-18,36-17,45,4,48c10,1,17-4,17-15c0-9,7-26,15-37c13-18,14-17,15,18c0,20,5,40,10,43c6,3,10,15,10,27
		c0,37-43,178-52,172c-6-4-6,10-2,32c6,33,5,36-11,31c-12-5-18-1-22,13c-6,23-23,27-23,5c0-8-7-15-16-15c-12,0-14,4-6,13
		c5,7,6,21,1,32c-13,33-10,37,21,33l29-4l-19,31c-11,18-20,43-20,56c0,38-16,53-59,55C22477,8108,22470,8105,22470,8089z"/>
	<path class="st1" d="M22290,8041c0-6,5-13,10-16c7-4,9-30,7-61c-4-56,0-63,22-41c10,9,15,9,18,0c2-7,11-9,19-6c21,8,17-20-6-40
		c-17-14-18-20-8-37c7-11,18-20,24-20c7,0,14-7,18-15c9-25,24-17,36,20c6,19,16,35,21,35c6,0,7-4,4-10c-7-11,24-13,49-4
		c24,9,19,39-9,54c-20,11-25,21-25,52c0,31-3,38-20,38c-11,0-20-4-20-10c0-5-8-10-19-10c-14,0-17,6-13,25c4,21,0,25-19,25
		c-13,1-35,7-49,15C22300,8052,22290,8053,22290,8041z M22447,7948c-3-8-6-5-6,6c-1,11,2,17,5,13C22449,7964,22450,7955,22447,7948z
		 M22440,7875c0-5-5-3-10,5s-10,20-10,25c0,6,5,3,10-5S22440,7881,22440,7875z M22457,7878c-3-8-6-5-6,6c-1,11,2,17,5,13
		C22459,7894,22460,7885,22457,7878z M22417,7858c-3-8-6-5-6,6c-1,11,2,17,5,13C22419,7874,22420,7865,22417,7858z"/>
	<path class="st1" d="M22104,7970c-4-19-15-47-26-62c-11-16-16-33-13-38c4-6,3-9-2-8c-12,4-90-76-98-101c-4-13-2-28,4-34
		c8-8,11-8,11,0c0,5,23,33,50,61c28,28,50,55,50,61c0,16,43,58,64,62c27,5,31,25,6,32c-14,3-20,13-20,32c0,15,4,24,10,20
		c6-3,10-2,10,4c0,5-9,9-20,8C22116,8006,22108,7996,22104,7970z"/>
	<path class="st1" d="M19114,7858c-4-6-2-14,4-16c7-2,12-12,12-23c0-12-5-16-15-13c-8,4-15,1-15-5s5-11,10-11c13,0,13-43,1-55
		c-8-9,10-146,24-183c9-23,48-31,80-15c52,26,65,43,65,86c0,41-40,136-66,158c-8,6-14,17-14,23c0,15-52,66-67,66
		C19126,7870,19118,7865,19114,7858z"/>
	<path class="st1" d="M21953,7652c-5-4-16-24-24-44c-7-21-17-38-22-38c-4,0-13-13-18-29c-6-16-22-37-35-46c-20-13-23-19-13-31
		c9-12,7-14-15-14c-15,0-34-7-42-15c-9-8-24-15-35-15c-13,0-19-7-19-21c0-12-18-43-40-69c-33-40-47-49-85-54c-24-4-47-11-50-17
		c-4-5-11-7-16-4c-8,5-14-32-10-58c1-4-3-17-9-28c-9-16-14-18-33-7c-12,7-30,11-40,9c-9-1-20,5-23,13c-9,22-37,4-56-35
		c-17-33-16-70,0-156c14-71,27-92,52-86c17,5,20,1,19-28c0-19,3-55,6-81c8-50,7-49,83-48c35,0,42-3,42-19c0-23,16-36,25-21
		c4,6,14,8,24,5s27,4,39,15c12,12,22,16,22,10c0-5,7-10,15-10s15-5,15-11c0-7,9-9,21-6c33,9,49-3,49-34c0-35,6-36,61-4l44,24l12-22
		c11-22,12-22,23,7c6,16,8,37,5,47c-4,10,2,35,11,56c12,24,14,38,7,40c-19,7-2,47,34,81c19,17,38,32,44,32c5,0,7,22,3,53
		c-7,67,9,92,59,89c54-4,57,16,8,59c-34,29-42,41-36,58c4,14-1,31-14,50c-18,25-20,33-9,56c8,19,8,29,0,37c-14,14,5,34,42,44
		c36,9,42,22,11,30c-30,7-33,24-4,24c25,0,59,17,59,31c0,5-10,14-22,19c-29,13-61,33-69,43c-3,4-12,7-20,5c-9-2-13,4-11,17
		c1,12-8,30-23,43c-13,12-22,28-19,36C21982,7651,21969,7662,21953,7652z"/>
	<path class="st1" d="M20305,7500c-20-32,11-76,128-186c34-32,57-63,57-77c0-7,20-27,45-45c25-17,44-35,43-39c-5-21,34-122,50-128
		c28-9,102-142,108-192c2-24,32-68,77-113c15-15,27-31,27-36c0-4,40-47,89-95c88-87,90-88,121-77c25,8,35,8,46-4c12-12,13-20,3-41
		c-13-28-29-36-29-15c0,15-13,1-16-17c-2-11,8-15,36-15c34,0,70-22,62-39c-1-3,14-9,35-14c21-4,47-11,58-16c35-16,53-20,59-13
		c12,12,90,0,127-18c38-20,188-43,214-34c8,4,15,1,15-6c0-6,6-10,13-7c6,2,26-2,44-10c44-18,55-17,48,6c-5,16-2,18,15,14
		c12-3,20-14,20-27c1-21,1-21,15-2c8,11,15,15,15,8c0-6,17-14,38-17c20-4,47-10,58-15c14-5,40-4,70,5c27,7,43,14,35,14
		c-8,1-11,4-8,7c4,4,12,3,19-3c20-15,55-13,69,3c9,11,15,11,25,3c23-19,163-20,224-2c30,9,61,15,68,14c8-1,19,2,26,8c6,5,18,6,25,2
		c13-8,77,1,88,13c16,16-10,19-102,13c-27-2-53,2-58,7c-5,7-15,1-28-17c-11-15-25-24-31-21c-13,8-71,16-131,18c-33,0-51-4-57-14
		c-7-11-10-12-10-2c0,9-7,11-19,7c-11-3-22-1-26,5c-3,5-1,10,5,10s8,5,4,11c-5,8-8,8-13,0c-8-12-45-10-57,2c-13,13-55,7-61-9
		c-3-8-11-13-19-10c-7,3-14,0-17-7c-2-8-9-6-21,6c-22,22-38,18-51-11c-5-12-15-22-22-22c-16,0-17,16-2,25c15,10-28,38-46,31
		c-21-8-45,3-45,20c0,15-2,16-70,18c-33,1-45,5-48,18c-2,13,2,16,17,13c28-5,83,14,78,28c-2,6-31,9-74,8c-48-2-81,3-101,13
		c-16,8-32,12-36,9c-3-4-12,2-20,12c-13,18-14,17-30-8c-13-19-24-25-44-22c-15,1-45,3-67,4c-31,1-43,6-50,23c-6,12-20,23-33,25
		s-37,10-55,19c-19,11-32,13-35,6c-2-7-14-7-34-1c-17,4-35,6-40,3c-5-4-7,8-3,28c3,18,7,67,10,108c5,102,12,122,36,109
		c22-11,59,4,59,24c0,8-3,8-9-2c-6-9-11-10-15-2c-4,6-5,15-2,20s-3,11-14,14c-20,5-24,11-34,60c-8,33-27,34-60,4c-27-25-25-37,6-37
		c10,0,18-5,18-11c0-7-9-9-22-5c-13,3-26,6-30,6c-5,0-8,5-8,11s-7,17-15,25c-8,9-15,29-15,45c0,24-4,29-23,29c-13,0-32,6-42,14
		c-17,12-18,16-5,31c20,24,23,60,6,74c-8,7-12,20-9,28c5,12,2,15-10,10c-11-4-17-1-17,8c0,8-11,17-25,21c-14,3-25,12-25,20
		c0,13-5,16-40,18c-8,1-15,10-15,21c0,12-8,21-20,23c-11,2-25,8-31,13c-5,4-19,6-31,3c-15-4-23,0-28,15c-3,12-11,21-16,21s-9,5-9,11
		c0,13-15,28-60,59c-19,13-41,30-48,37s-18,13-23,13s-9,7-9,15c0,9-5,21-10,28c-6,7-19,23-30,36c-16,19-29,23-69,23
		c-35,0-57,6-72,19C20335,7512,20314,7515,20305,7500z M22030,6274c0-2-7-4-15-4s-15,4-15,10c0,5,7,7,15,4
		C22023,6280,22030,6276,22030,6274z"/>
	<path class="st1" d="M18580,7351c0-17,4-32,10-36c5-3,7-12,4-19c-3-8-1-17,5-21c6-3,11-12,11-18c0-7-4-6-11,3c-9,12-10,12-5-3
		c3-10,6-27,6-38c0-23,23-25,40-3c11,13,10,16-8,21c-12,3-19,10-16,15c10,16-6,79-18,72c-7-5-9,4-6,25c2,17,1,31-4,31
		C18584,7380,18580,7367,18580,7351z M18630,7220c0-5-4-10-10-10c-5,0-10,5-10,10c0,6,5,10,10,10C18626,7230,18630,7226,18630,7220z
		"/>
	<path class="st1" d="M22790,7184c-8-14-14-43-15-65c0-21-4-39-10-39c-5,0-3-5,5-11c10-7,11-12,4-15s-9-15-6-26c5-21,6-21,13-2
		c6,16,8,14,8-10c1-24-2-27-19-23c-24,6-34-6-25-32c7-25,65-35,65-12c1,13,2,13,11-2c20-34,26-7,8,31c-26,52-18,74,22,60s45-6,15,23
		c-24,23-24,24-5,37c18,13,27,62,11,62c-4,0-18-7-30-16c-22-15-22-14-22,25C22820,7216,22809,7221,22790,7184z"/>
	<path class="st1" d="M22546,7130c-23-24-45-39-55-36c-9,3-51,8-93,12c-43,3-78,10-78,14c0,10-36,19-47,11c-5-3-12-14-16-24
		s-12-15-17-12c-14,9-50-32-50-57c0-10-4-18-8-18c-5,0-7-13-4-29c2-17-3-39-12-53c-9-12-16-37-16-54c0-34-26-94-41-94
		c-5,0-8-12-5-27c2-16,5-35,5-44c1-11,8-15,24-12c20,4,23,0,25-33c2-21-2-60-9-87c-14-58-6-69,42-61c32,6,35,9,36,42
		c2,157,8,202,26,208c27,9,33-3,19-38c-11-29-9-34,17-57c21-20,26-31,21-46c-8-21,5-45,24-45c6,0,19,9,29,20c9,11,22,20,28,20
		c8,0,7-6-3-17c-25-29-28-60-7-79c18-16,20-16,39,1c12,11,18,25,15,36c-3,9-2,20,2,22c4,3,8,22,8,44c-1,31-4,37-19,35
		c-22-4-45,25-39,49c3,10-9,41-26,70c-25,40-29,54-20,65c6,8,18,14,25,14s24,14,36,31c17,23,28,29,45,24c18-4,23-1,23,15
		c0,27-25,36-56,20c-13-7-40-14-60-14c-25-1-42-9-55-25c-18-22-49-23-49-1c0,5-9,19-21,31c-16,16-20,28-15,52c10,51,19,54,146,45
		c170-11,200-10,200,13c0,6,11,25,25,43c15,20,23,40,19,50C22595,7177,22590,7175,22546,7130z"/>
	<path class="st1" d="M22855,6772c-16-2-33-9-37-15c-6-9-8-9-8,0s-7,7-20-4c-24-20-26-38-5-29c11,4,15-1,15-18c0-23,2-24,35-13
		c19,6,35,17,35,24c0,11,4,11,20,3c12-6,29-8,39-5c11,3,34-3,53-15c42-26,48-25,48,3C23030,6754,22955,6783,22855,6772z"/>
	<path class="st1" d="M22699,6296c-2-2-31-7-64-11c-42-4-65-12-75-25c-8-11-36-28-62-40c-29-13-49-29-54-43c-3-12-13-29-21-39
		c-11-12-11-18-3-23c21-13,87,17,123,54c20,21,54,43,79,51c56,18,120,58,113,70C22729,6300,22707,6303,22699,6296z"/>
</g>
<g transform="translate(0,239) scale(0.016963,-0.016963)">
	<path class="st2" d="M23110,6970c-19-11-40-24-47-29c-8-7-14-7-18-1c-7,11-45,14-45,4c0-17,44-64,60-64c28,0,50-11,50-25
		c0-29,34-43,93-39c42,3,57,2,52-6c-4-7-17-9-30-6c-14,4-28,0-35-9s-21-13-30-10c-20,6-50-3-50-16c0-5,11-14,25-19s25-16,25-25
		c0-8,5-15,11-15c5,0,7-5,4-10c-9-15,5-51,16-44c6,3,17,0,25-7c8-6,18-9,21-5c4,4,2,10-4,14c-7,5-9,13-3,21c7,12,14,11,45-3
		c20-10,45-25,55-33c10-9,32-18,48-19c39-5,187-76,186-89c-1-5,5-19,12-30c8-11,14-27,14-37s3-18,8-18c4,0,7-16,8-35
		c0-27-3-35-17-35c-19,0-69-64-69-88c0-14,90-14,101,1c3,4,21,10,40,12c32,4,38,1,72-44c37-48,38-49,92-49c31,1,58-2,62-5
		c3-4,14-2,24,3c15,8,17,7,14-10c-2-11-7-25-10-30c-3-6-2-10,3-10c12,0,22,24,22,51c0,10,5,19,10,19c6,0,10,7,10,16c0,8,4,13,9,10
		s9,5,9,18c0,40,73,92,96,68c4-4,24-12,44-17c22-6,41-19,47-33c5-12,13-22,17-22c5,0,8-8,8-19c0-10,7-24,15-31s12-16,9-21s2-9,10-9
		c9,0,18-11,22-24c4-18,17-27,52-37c26-7,61-12,77-11c17,0,40-6,52-14c26-16,99-19,108-4c4,6,3,10-2,9c-4-1-15-1-23,0
		c-12,1-12,3-2,9c9,6,0,13-28,22c-36,12-55,30-30,30c23,0,8,19-17,22c-23,2-27,7-25,27c3,22,1,23-26,18c-27-6-30-3-43,36
		c-8,23-31,58-51,78c-21,20-38,46-38,57c0,18,6,22,35,22c27,0,35,4,35,18c0,21-33,55-56,58c-9,1-23,9-32,17c-10,8-29,17-43,21
		c-22,5-25,10-21,31c2,14,8,25,13,25s9,7,9,16c0,14-3,14-15,4c-13-11-19-9-35,8c-11,12-20,26-20,32s-4,9-9,5c-5-3-16,2-24,10
		c-9,8-24,15-35,15s-25,7-32,15c-6,8-37,21-68,30c-32,9-75,27-97,39c-22,13-46,21-52,19c-7-3-13,0-13,5s-19,12-41,16
		c-23,4-72,23-109,43c-63,33-70,35-98,22c-17-7-33-21-35-31c-3-11-15-18-31-18c-14,0-26-4-26-8c0-5-8-18-17-30c-10-11-25-30-33-41
		c-8-12-24-21-36-21c-17,0-24,9-34,48c-7,26-15,41-17,34c-7-18-23-4-23,21c0,18,2,20,11,7c9-12,10-11,4,5c-4,11-8,37-10,58
		c-5,46-13,60-30,53c-7-2-29,4-49,15C23172,6994,23155,6994,23110,6970z"/>
	<path class="st2" d="M23852,6078c-5-7-13-24-17-38s-16-40-28-58c-11-19-21-52-23-74s-8-46-14-53c-5-7-12-41-15-76
		c-6-76-40-186-66-215c-11-11-19-25-19-31c0-20-31-43-56-43c-16,0-39,15-64,40c-22,22-48,40-58,40s-25,11-32,25s-19,25-26,25
		c-8,0-16,11-20,25c-7,27-24,34-24,10c0-10-18,2-49,31l-49,47l20,21c11,12,24,31,29,44s14,20,20,17c6-4,8-13,5-20c-5-13,31-28,46-19
		c8,5,4,52-6,62c-3,3-12-1-21-8c-13-11-15-9-15,14c0,14,5,25,11,24c6-2,22,17,36,42c20,37,21,46,10,55c-8,5-12,16-10,23
		c3,6,0,12-6,12s-11-4-11-9s-9-11-21-14c-15-4-19-2-15,9c7,19,0,18-34-8c-23-17-33-19-42-10c-7,7-22,12-34,12c-13,0-29,6-36,13
		c-7,8-19,12-26,9c-6-2-12,5-12,15c0,15-2,16-10,3c-9-13-12-13-21,3c-6,9-14,15-20,12c-5-4-9,3-9,14c0,18-3,19-25,11
		c-14-5-25-6-25-3c0,4-5,2-12-5c-14-14,7-43,26-36s29-25,14-43c-9-12-26-14-65-10c-30,3-53,1-53-4s-5-9-12-9c-18,0-67-60-62-75
		c3-8-4-18-15-25c-12-6-21-16-21-22c0-7-10-22-22-35c-18-19-20-26-9-32c23-15,2-30-35-25c-20,2-43-1-50-7c-12-10-13-9-8,5
		c4,10,0,18-10,22c-9,3-16,12-16,19c0,8-14,24-31,36c-29,20-33,21-44,6c-7-9-14-15-16-12c-11,10-69,15-69,5c0-5,5-10,10-10
		c6,0,10-10,10-22c-1-22-1-23-15-4c-14,18-15,18-15,2c0-13-5-16-20-11c-17,5-20,2-20-21c0-15-3-25-6-22c-11,11-58-44-60-70
		c-1-15-3-31-3-36c-1-4-17-5-37-1c-23,4-34,3-30-4c4-5,2-12-4-16c-7-4-7-12,0-26c7-11,7-19,1-19c-5,0-11-8-14-17c-2-10-8,1-12,25
		c-4,23-11,42-14,42c-4,0-24-17-44-38c-29-29-37-46-37-73s-9-45-32-71c-18-20-41-47-51-62c-25-36-73-59-129-61c-28-1-55-8-66-18
		c-10-9-30-17-44-17s-31-7-38-15c-9-11-25-14-51-11c-22,2-41,0-45-5c-3-5-12-9-20-9s-29-13-47-29c-17-17-48-37-68-46
		c-20-10-42-29-50-44l-12-26l-6,30c-5,24-8,27-16,15c-25-38-35-65-35-92c0-16-11-46-25-66c-30-44-30-53-7-129c23-75,18-113-8-57
		l-18,39l-10-25l-10-25l-11,25c-10,22-11,19-6-19c3-24,13-57,21-73c9-17,17-53,19-82c2-28,7-64,10-81c4-16,7-43,6-60
		c0-16-2-84-3-149c-2-85-7-121-15-123c-7-3-13-15-13-27c0-30-27-66-51-66c-12,0-23-10-29-26c-14-36-13-44,9-44c11,0,22-8,25-18
		c8-24,40-39,98-46c45-5,98,8,98,24c0,8,32,21,61,25c9,1,25,11,36,22c25,25,97,35,215,29l86-5l44,45c23,24,51,44,60,44s19,4,22,9
		s18,12,33,16c16,3,36,13,45,22c12,11,27,13,50,9c33-6,171,25,193,44c6,5,52,12,103,16c87,7,94,6,117-16c13-12,30-20,37-18
		c7,3,30-6,50-19c21-12,43-23,50-23c9,0,9-3,0-12c-17-17-15-48,2-48c23,0,34-91,13-104c-14-9-12-14,16-39c32-28,32-28,35-6
		c4,25,68,89,89,89c8,0,35,20,60,45s48,43,52,39c3-4,0-9-6-11c-7-3-13-13-13-23s-12-25-26-35c-14-9-32-32-40-51s-25-39-37-43
		c-13-5-29-17-37-27c-14-16-13-17,10-11c14,4,33,7,43,7s27,16,38,35c12,19,25,35,30,35c20,0,7-50-21-78c-33-33-30-44,10-36
		c23,5,29,1,40-27c12-29,12-36-6-68c-17-31-19-41-9-70c7-19,22-38,34-42c11-5,21-12,21-17s18-9,41-9s44-5,48-10c3-6,16-15,28-22
		c19-10,30-8,70,13c26,14,50,22,53,18s22-16,43-26c20-11,37-26,37-34c0-12,4-12,21,4c58,52,164,104,216,104c64,0,122,32,123,67
		c0,7,11,24,25,39s25,32,25,39c0,6,20,30,45,53s67,68,92,100c61,76,110,123,156,147c20,11,37,25,37,31s12,24,28,41
		c45,49,62,73,62,85c0,7,10,28,23,47c57,87,89,146,93,175c3,17,12,48,20,70c16,41,11,65-5,25c-5-13-10-19-10-14c-1,11,17,82,26,105
		c3,8,5,19,4,23c-1,5,8,23,19,42c11,18,20,41,19,51c0,14-2,15-6,4c-15-41-53-48-53-9c0,10-4,19-9,19s-11,14-14,30c-4,17-13,30-21,30
		s-16,10-18,23c-2,12-9,21-16,19c-11-2-12,10-6,54c6,54,6,57-14,52c-13-4-23,0-26,9c-5,13-9,13-22,2s-15-7-13,28c2,25-4,51-14,67
		c-21,31-21,36-2,36c10,0,14,8,11,23c-2,12-9,21-16,19c-17-4-79,39-86,60c-3,10-11,15-20,11c-7-3-14,0-14,7c0,6-4,9-9,6
		c-15-10-34,23-29,49c3,14,1,28-4,31c-4,3-5,10-2,16c12,19,4,101-11,118c-15,16-17,123-2,146c4,7-4,19-20,29c-24,16-25,19-10,30
		c12,9,14,14,5,23c-7,7-19,12-27,11c-11,0-10-3,4-9c20-9,20-9,0-10c-11-2-23-2-27-1c-5,0-8-3-8-9c0-5-7-10-16-10c-12,0-14,10-12,50
		c2,37,7,49,16,45c10-4,13,5,12,33c-1,20-1,39,0,42c7,21,7,40-1,40c-10,0-13-20-10-69c2-20-1-31-7-27c-6,3-9,14-7,24c1,9-2,22-7,28
		c-10,14-7,35,7,47c6,5,3,7-7,3c-17-5-43,25-32,37c3,3,3,19-1,36C23888,6091,23870,6099,23852,6078z M21490,4735c0-8-2-15-4-15
		s-6,7-10,15c-3,8-1,15,4,15C21486,4750,21490,4743,21490,4735z M23390,3715c-7-9-15-13-17-11c-7,7,7,26,19,26
		C23398,3730,23398,3724,23390,3715z"/>
	<path class="st2" d="M23246,3492c-14-21-28-57-30-80c-3-22-10-50-16-61c-6-12-10-39-8-60c2-35,5-40,31-45c31-6,97,19,97,36
		c0,7,5,7,13,0c10-8,20-4,40,18c15,15,27,35,27,44s8,16,19,16c12,0,23,9,27,23c4,12,17,38,30,58c31,49,18,60-49,41
		c-88-24-91-24-112-5c-11,11-24,21-30,24c-5,2-9,10-7,17C23283,3539,23274,3531,23246,3492z"/>
</g>
<g transform="translate(0,239) scale(0.016963,-0.016963)">
	<path class="st3" d="M16006,13671c-4-5-25-12-49-16c-42-7-127-43-138-59c-4-5-12-5-18-2c-6,4-11,2-11-3c0-6,6-12,13-12
		c6-1,23-3,35-4c14-1,33,7,44,19c12,11,18,16,15,10c-4-7,3-14,16-18c31-8,39-7,32,4c-3,6,1,7,9,4c9-3,13-11,9-17c-4-7,20-8,78-4
		c50,3,76,2,64-3c-16-7-11-9,21-9c29-1,44,4,48,14c3,8,14,15,25,15c26,0,51,10,51,21c0,5-9,9-19,9c-11,0-21,4-23,10
		c-3,8-68,18-132,20c-15,0-16,3-6,15c11,13,7,15-23,15C16027,13680,16009,13676,16006,13671z M16125,13620c-10-11-30-20-44-19l-26,1
		l25,8c14,4,18,9,10,10s-4,6,10,10C16140,13643,16144,13641,16125,13620z M15870,13606c0-3-4-8-10-11c-5-3-10-1-10,4c0,6,5,11,10,11
		C15866,13610,15870,13608,15870,13606z"/>
	<path class="st3" d="M15662,13626c-18-6-30-15-26-19s2-7-4-7c-7,0-12,5-12,10c0,12-72,12-145,0c-50-7-36-13,32-13c18,0,30-4,27-9
		c-3-4-4-8-2-9c53-9,119-9,114,0c-5,7,2,11,16,11c16,0,19-3,10-9c-16-9,30-21,82-21c24,0,28,3,16,10c-8,6-28,7-45,4
		c-27-6-28-5-16,10c7,9,22,16,33,16c10,0,16,5,13,10c-3,6-15,10-26,10c-10,0-19,5-19,10C15710,13642,15704,13642,15662,13626z"/>
	<path class="st3" d="M14170,13582c-9-10-25-12-52-8c-30,5-40,3-45-10c-3-9,0-20,8-25s9-9,3-9s-17,7-25,16c-7,9-22,14-36,11
		c-13-2-25-1-28,3c-2,4-30,5-62,4c-32-2-70-3-85-4c-22,0-26-4-21-17c4-10,18-29,32-42l26-24l-27,16c-16,10-29,13-33,7
		c-3-5,13-18,37-30c50-24,54-25,38-5c-24,29,51-18,78-47c13-16,31-28,40-28c10-1,35-9,57-20c59-29,82-26,90,10c4,17,13,30,20,30
		c15,0,73,50,59,50c-5,0-1,5,9,11c20,12,52,4,85-22c21-16,22-18,5-28c-20-12-13-14,33-11c18,1,35-3,39-9c7-12,53-5,70,10
		c5,5,17,9,28,9c10,0,15,5,12,10c-3,6-19,10-35,10s-30,7-34,16c-4,11-14,15-31,12c-14-3-25-1-25,3c0,14-91,51-108,44c-13-5-14-3-5,6
		c8,8,31,9,75,5c107-12,199-6,206,14c2,6,12,10,22,10c26,0,34,17,13,28c-29,15-151,21-158,8c-3-8-7-7-11,2c-9,18-54,15-54-4
		c0-13-3-14-15-4C14344,13598,14187,13599,14170,13582z M14258,13532c3-9-2-13-14-10c-9,1-19,9-22,16c-3,9,2,13,14,10
		C14245,13547,14255,13539,14258,13532z M14060,13465c0-3-8-5-18-5s-19,7-19,14c0,11,5,13,19,5C14052,13474,14060,13467,14060,13465
		z M13990,13440c0-5-4-10-10-10c-5,0-10,5-10,10c0,6,5,10,10,10C13986,13450,13990,13446,13990,13440z"/>
	<path class="st3" d="M16641,13383c-14-3-35-12-48-20c-16-11-65-18-149-24c-120-8-163-15-174-28c-11-14-86-44-103-42
		c-13,2-18-3-16-16c5-32-11-59-44-75l-32-16l25-10c15-7,19-11,9-11c-9-1-29-12-45-26c-23-19-25-25-11-25c25,0,21-19-8-30
		c-14-5-25-16-25-24c0-21,27-39,50-33c11,3,18,1,14-4c-3-5,7-14,22-19c21-8,29-8,36,2c6,10,8,9,8-3c0-22,21-29,100-36
		c120-9,133-9,138,6c3,10,0,12-12,8c-9-4-15-3-12,2c3,4-13,14-34,21c-22,7-40,16-40,19c0,4-12,14-28,23c-27,16-44,68-22,68
		c6,0,10,5,10,10c0,14,105,120,119,120c6,0,19,8,29,18c23,23,66,36,197,62c174,35,209,57,127,80
		C16684,13390,16681,13390,16641,13383z M16127,13164c-3-3-12-4-19-1c-8,3-5,6,6,6C16125,13170,16131,13167,16127,13164z"/>
	<path class="st3" d="M14635,12979c-4-6-14-8-23-4c-8,3-26-4-40-17s-22-17-18-10c5,8-2,12-26,12c-43,0-79-10-73-20s-43-24-74-21
		c-17,2-21-1-16-11c6-10,5-11-6,0c-24,22-89,12-89-14c0-15-1-15-37-19c-41-4-55-14-50-35c3-11,0-23-5-27c-7-4-8-1-3,7
		c6,10,2,11-20,6c-25-6-27-5-16,8c19,22,0,21-53-5c-33-15-43-25-39-36s2-14-5-9c-14,8-82-19-82-33s4-14,45,3c19,8,35,13,35,11
		s14,0,30,5c18,5,30,5,30-1c0-5-7-9-15-9s-15-9-15-19c0-11-20-34-50-55c-27-20-50-40-50-45s-9-11-20-14c-14-3-20-14-20-31
		c0-34-33-66-67-66c-23,0-25-2-13-11s13-11,1-16c-7-3-31-23-52-44c-35-35-41-38-60-27c-17,11-22,10-32-3c-7-9-18-14-26-11
		c-10,3-12,0-8-11s-2-17-24-22c-16-4-29-11-29-16s-11-11-25-15c-14-3-25-10-25-16c0-5-4-7-8-4c-5,3-22-3-39-14c-30-18-31-21-32-94
		c-1-63,2-74,14-70c16,6,21-11,7-20c-12-7-13-66-1-66c5,0,9-9,9-20c0-12,15-29,40-45c52-33,106-33,151,0c19,13,53,34,77,46
		c23,12,42,29,43,38c0,13,2,14,6,1c3-8,12-19,19-23c8-4,14-20,14-35s9-38,20-52s20-29,20-33c0-5,16-25,35-45s30-38,25-40
		c-6-2-10-10-10-18s-3-13-7-13c-16,3-73-14-73-21c0-10-59-24-67-17c-2,3,0,14,6,24c10,17,10,17,11,0c0-10,5-15,10-12c6,4,8,10,5,15
		s-1,11,5,15c18,11,11,35-10,35c-20,0-28,24-11,35c12,7,11,65-1,65c-4,0-8-4-8-10c0-5-6-10-14-10c-7,0-19-7-26-15s-25-15-41-15
		c-54,0-91-107-51-148c14-16,15-29,2-37c-5-3-7-12-3-21c4-11,9-12,19-3c11,9,14,8,14-5c0-9-5-16-11-16c-8,0-8-5,1-15
		c22-26-5-46-51-39c-26,5-46,2-61-8c-14-9-36-13-54-11c-47,7-90-19-98-60c-10-53-76-113-151-138c-44-14-51-20-58-52
		c-8-32-14-38-48-47c-22-6-45-20-52-30c-14-23-49-26-69-7c-7,8-26,17-42,21c-26,6-28,5-21-16c21-68,19-73-22-73c-21,0-43,4-50,8
		c-13,8-89-1-113-14c-19-9-21-59-3-59c7,0,13-4,13-10c0-5,6-7,13-4c23,9,67-14,61-31c-3-8-1-15,6-15c6,0,8,5,5,10
		c-11,18,25,10,47-10c13-11,16-20,9-20c-9,0-8-5,3-16c9-8,16-20,16-25s7-9,16-9c8,0,12-4,9-10c-3-5-2-10,3-10s9-6,9-12
		c0-7,2-17,4-23c4-14-10-114-22-153c-12-36-40-56-69-47c-17,5-151,15-277,19c-29,1-55,5-59,9c-14,14-51,7-69-13c-10-11-26-20-35-20
		c-28,0-42-24-31-53c5-13,11-55,12-93c3-73-20-157-50-181c-8-7-12-13-9-13c4,0,3-13-2-30c-5-18-5-30,1-30c5,0,9-7,9-15s6-14,13-12
		c13,2,15-49,3-93c-7-24-5-25,36-24c24,0,53,4,66,8c36,12,62-3,79-45c17-44,55-62,76-36c22,27,81,46,142,47c33,0,68,0,78,1
		c9,0,24,14,32,30c11,20,26,32,46,36c23,4,34,15,46,44c8,22,21,39,28,39s18,7,25,15c11,13,10,18-2,28c-24,19-27,42-10,69
		c36,53,97,118,111,118c8,0,38,12,67,27c54,27,84,67,64,87c-5,5-10,20-10,32c0,49,106,67,167,28c33-21,56-17,92,15
		c19,17,46,33,62,36c16,4,34,15,39,25s16,20,24,23c21,8,106-31,106-49c0-8,6-23,13-35c10-17,9-22-6-34c-13-9-15-15-6-20
		c6-4,15-2,19,6c7,10,11,10,24,0c9-8,16-20,16-27c0-8,9-14,20-14s20-3,20-8c0-15,100-86,123-87c13,0,35-12,49-27c14-16,33-28,42-28
		s16-7,16-16s13-21,30-27c22-8,33-22,45-57c10-28,12-46,5-48c-5-2-10-12-10-21c0-23-92-44-164-37c-59,5-76,0-76-24
		c0-17,90-70,118-70c6,0,15-6,19-13c4-8,18-16,31-20c25-6,46,21,36,47c-3,9-3,28,0,42c5,20,11,24,27,19c25-8,69,29,69,58
		c0,10,9,21,20,24c28,7,26,45-5,63c-22,14-23,18-12,40c10,20,19,24,42,22c17-2,32-8,33-13c2-5,11-17,20-25c15-15,17-15,26,5
		c13,30-17,60-104,102c-59,28-67,36-59,51c5,10,6,18,2,19c-4,0-27,1-50,3c-34,2-50,10-78,39c-19,20-35,44-35,54c-1,25-18,45-62,71
		c-41,25-56,55-38,77c7,9,8,15,0,20c-20,12-10,31,23,43c40,14,69,16,49,4c-9-6-10-16-3-34c12-33,31-45,42-27c6,11,9,8,9-8
		c0-12,5-25,10-28c6-3,10,3,10,14s5,23,12,27c8,5,9,2,5-10c-4-10-1-24,9-33c11-12,12-18,4-23c-13-8,34-50,56-50c8,0,22-9,31-20
		c10-11,29-20,43-21l25-1l-25-8c-24-8-24-8,7-9c17-1,35-5,38-11c3-5,14-10,24-10c9,0,40-17,68-37l52-38l-6-62c-5-58-4-62,22-79
		c16-10,22-20,15-24c-14-9-2-40,15-40c8,0,21-7,29-16c16-15,16-33,1-68c-4-10-4-21,2-25c5-3,12-14,16-23c7-20,27-24,27-6
		c0,25,38-25,45-59c6-31,9-34,31-29c17,5,24,2,24-9c0-8,5-15,10-15c6,0,10,5,10,10c0,6,5,10,10,10c6,0,10-11,10-25s5-25,10-25
		c19,0,15,51-7,95c-11,21-11,26-2,18c7-7,21-13,32-13c14,0,17,5,12,21c-6,17-3,20,17,17c18-2,22,1,20,16c-3,17-2,18,12,7
		c9-8,16-10,16-6s7,2,15-5s15-21,15-32c0-18,1-18,16-4c14,14,13,18-5,38c-12,12-21,18-21,14c0-15-32,18-41,41c-5,14-17,23-29,23
		c-14,0-24,10-31,30c-6,17-15,30-20,30c-11,0-41,58-37,72c2,6,18-1,35-16c31-26,49-34,38-16c-4,6,1,7,11,3c14-5,16-3,10,13
		c-6,15-5,17,5,7c24-24,33-13,10,11s-23,24-3,35c15,8,23,8,28-1c4-7,3-8-4-4s-12,2-12-3c0-19,27-12,33,8c4,18,8,18,38,7
		c19-6,44-17,57-24c31-17,63-12,84,14c13,16,28,21,54,20c19-1,40,4,46,12c12,14,12,14-23,29c-31,13-74,92-59,107c6,6,10,20,10,32
		c0,13,8,24,19,27c16,4,20,15,23,53c3,42,7,51,31,62c19,9,27,21,27,38c0,14,13,39,30,57c16,18,30,38,30,45c0,6,11,12,25,12
		c15,0,25-6,25-15c0-15,52-29,107-28c18,1,30-3,27-8s-10-9-15-9c-13,0-55-40-43-41c13-2,26-5,52-14c18-6,22-14,20-34
		c-3-22,1-26,26-29c19-2,32,2,38,12c5,9,20,16,33,16s27,5,30,10c3,6,22,10,41,10c24,0,34,5,34,15c0,17,5,14,51-27c10-10,25-18,32-18
		s22-7,33-15c10-8,25-15,33-15s22-7,32-16c15-13,24-14,49-6c25,9,36,8,63-7c17-11,48-22,67-26s56-20,81-36c41-26,52-29,100-23l54,6
		l65-57c110-95,375-216,357-162c-2,6-11,12-20,12c-10,0-60,47-112,104c-82,88-95,108-95,137c0,33-29,74-63,88c-8,3-9,7-2,13
		c6,4,15,21,20,37c10,31,61,66,83,58c6-2,12,2,12,10c0,20,25,41,90,74c30,16,57,30,60,32s-8,14-25,27c-24,20-29,31-27,59
		s-5,43-31,73c-43,48-53,67-61,120c-6,42-6,42,31,52c21,6,61,11,89,11c27,0,55,5,61,11c20,20,143,14,208-9c45-17,71-21,107-16
		c33,5,48,3,48-5c0-6,9-11,19-11c11,0,26-7,35-15c18-19,42-19,49-1c4,10,17,13,44,9c71-9,87,49,20,72c-51,17-72,35-55,47
		c13,9,6,16-52,58c-20,14-21,18-10,62c10,41,10,50-6,77c-25,42-56,41-95-4c-42-47-75-47-109,1c-14,19-36,49-49,65c-23,29-23,31-6,49
		c10,11,31,20,47,20c67,0,91,80,39,128c-37,34-51,70-51,130c-1,113-27,225-84,351c-39,87-53,128-46,136c6,7,32,20,58,30
		c102,38,210,115,212,150c0,6-19,29-42,52c-49,47-110,68-228,78c-106,10-111,11-169,36c-39,16-55,19-63,11c-9-9-6-17,10-32
		c12-12,26-19,31-16c10,6,88-30,108-49c19-19,16-25-12-25c-18,0-23-4-19-15c5-11,2-13-10-9c-8,3-15,9-15,12c3,20-15,51-32,55
		c-21,6-27-9-6-16c6-2-6-8-28-12s-44-11-50-15c-5-4-31-7-58-7c-26-1-54-6-62-13c-7-6-24-10-37-8c-28,4-36,34-11,41c10,3,0,5-22,6
		c-22,0-50-6-62-14c-11-8-36-16-54-17c-19-1-52-13-74-25c-22-13-49-23-60-23c-31-1-61-23-60-45c0-11-7-23-15-27c-27-12-77-8-90,7
		c-7,8-19,15-27,15c-28,0-6,24,32,34l38,11l-34,26c-27,21-49,27-107,31c-74,5-106-5-52-17c28-6,30-10,30-49c0-36,4-45,25-54
		c26-12,31-27,16-51c-6-10-13-11-29-2c-11,6-30,11-41,11c-12,0-21,7-21,16c0,10-10,6-32-15c-18-17-40-31-48-31s-28-11-44-23l-29-23
		l23-22c37-34,15-46-53-28c-30,8-65,20-78,26c-16,9-27,9-44,0c-24-13-23-40,1-40c8,0,14-4,14-10c0-5,13-10,29-10s31-6,35-15
		c9-26-51-22-103,6c-20,10-44,19-53,19c-10,0-18,6-18,13c0,8-9,22-20,32c-15,14-17,22-9,37c12,23-8,43-53,53c-14,3-28,12-31,19
		c-4,9,14,8,77-4c208-43,266-43,328,1c32,23,35,45,10,76c-17,21-91,57-100,49c-2-3-19,2-36,11s-33,16-36,16c-8-1-31,8-80,29
		c-25,11-87,24-137,30c-61,7-93,15-93,23c0,14-69,28-84,17c-6-4-31-5-56-2l-45,5l33,12c19,7,31,16,28,21c-8,13-124,44-136,37
		c-6-3-10-1-10,4c0,6-15,11-34,11c-23,0-38-7-49-22c-11-16-16-18-17-8c0,8-12,21-27,28C14650,12993,14643,12993,14635,12979z
		 M14680,12960c0-5-5-10-11-10c-5,0-7,5-4,10c3,6,8,10,11,10C14678,12970,14680,12966,14680,12960z M14790,12966c0-9-30-14-35-6
		c-4,6,3,10,14,10C14781,12970,14790,12968,14790,12966z M14330,12870c0-5-7-7-15-4c-8,4-15,8-15,10s7,4,15,4
		S14330,12876,14330,12870z M14230,12850c0-5-8-10-17-10c-15,0-16,2-3,10C14229,12862,14230,12862,14230,12850z M14124,12784
		c3-8,2-12-4-9s-10,10-10,16C14110,12805,14117,12802,14124,12784z M14203,12793c-7-2-19-2-25,0c-7,3-2,5,12,5
		S14209,12796,14203,12793z M14649,12574c21-4,31-12,31-24c0-14-5-17-21-13s-20,2-17-8c6-16-56-79-78-79c-8,0-14-4-14-8
		c0-14-58-42-73-36c-8,3-18,1-22-5c-3-6,1-14,9-17c14-5,14-8,1-20c-11-11-12-20-5-34c6-11,14-28,18-37c5-10,7-41,6-69
		c-2-43,0-51,14-50c9,0,16-4,15-10c-1-7,13-15,32-18c18-4,35-11,37-17c2-7,30-3,77,9c41,11,81,18,88,15c8-3,18-1,22,5
		c3,6,38,13,76,16c58,4,74,2,95-14c28-21,25-29-13-32c-15-1-27-8-27-16c0-13-50-12-150,1c-47,6-164-47-132-60c17-7,15-24-3-17
		c-8,4-15,12-15,20s-6,14-12,13c-19-1-55-17-40-18c18-1,15-21-4-21c-13,0-15-6-9-27c8-33,16-42,22-25c3,6,13,12,24,12
		c10,0,19,4,19,9c0,12,39,21,46,10c3-5,13-9,22-9c34,0,24-99-9-100c-3,0-22,15-43,34c-34,30-41,32-66,23c-39-15-64-75-57-137
		c6-51-11-80-46-80c-9,0-17-7-17-15c0-9-11-20-24-27c-27-12-61-4-51,12c18,29-124,16-150-15c-5-6-38-17-72-25c-65-13-93-6-93,25
		c0,28-28,24-124-19c-21-9-41-14-45-11c-8,9,39,46,49,40c4-3,10,2,14,10c3,8,13,15,21,15c9,0,13,5,10,10c-4,6-12,7-18,3
		c-8-5-8-2,0,9c7,8,10,18,6,21c-3,4-1,7,5,7c7,0,12,8,13,18c1,11,4,8,8-8c6-22,13-25,51-25c37,0,45,4,49,20c5,29,31,44,74,45
		c28,0,37,4,37,18s2,15,10,2c5-8,11-12,13-10c12,13,36,84,31,89c-4,3-9,0-11-6c-8-23-24-14-18,10c5,18,11,54,14,88c1,4,11,10,24,14
		c12,4,24,8,27,9s15,5,28,10c12,4,22,14,22,23s7,21,15,27c12,9,12,15,2,35c-12,25-20,30-72,53c-31,14-42,37-29,66c4,9,7,29,7,43
		c0,17,9,32,28,45c16,10,29,24,29,29c0,10,70,45,91,45c5,0,26,16,47,36c27,26,33,37,23,43c-11,7-9,15,9,39c13,17,27,29,32,26
		c4-3,8,0,8,5C14520,12581,14599,12584,14649,12574z M13870,12478c0-14-48-58-63-58c-5,0-4,7,3,15s9,15,5,15c-5,0,2,9,15,20
		C13856,12493,13870,12495,13870,12478z M13687,12364c-3-3-12-4-19-1c-8,3-5,6,6,6C13685,12370,13691,12367,13687,12364z
		 M13900,11740c0-4-7-11-16-14c-8-3-12-2-9,4s1,10-4,10c-6,0-11,4-11,9s9,7,20,4S13900,11744,13900,11740z M14502,11738
		c-7-7-12-8-12-2c0,14,12,26,19,19C14511,11752,14508,11744,14502,11738z M13850,11721c0,5,6,4,14-3c21-19-9-34-40-19
		c-33,15-32,33,1,21C13841,11714,13850,11714,13850,11721z M13505,11541c-3-6-11-11-16-11s-4,6,3,14
		C13506,11560,13516,11557,13505,11541z M15730,11061c-19-10-38-17-42-14c-5,2-8-2-8-10s10-18,23-21c19-6,20-8,6-16
		c-9-5-20-21-23-36c-7-25-9-26-66-21c-32,2-63,0-68-5c-6-6-18,1-30,17l-21,27l27,29c15,16,41,30,57,33c17,2,38,7,49,11
		c26,11,77,23,106,24C15762,11080,15761,11078,15730,11061z M14600,10327c5,2,7-4,4-12c-4-8-10-15-15-15s-12-1-16-2c-4-2-8,13-10,32
		c-3,34-3,34,13,15C14584,10334,14595,10326,14600,10327z M14790,10350c13-8,13-10-2-10c-9,0-20,5-23,10
		C14757,10363,14770,10363,14790,10350z M14727,10314c-3-3-12-4-19-1c-8,3-5,6,6,6C14725,10320,14731,10317,14727,10314z
		 M14747,10278c-3-8-6-5-6,6c-1,11,2,17,5,13C14749,10294,14750,10285,14747,10278z"/>
	<path class="st3" d="M11906,12634c-9-8-25-16-36-17s-20-7-20-14s-4-13-8-13c-5,0-17-7-28-15c-17-15-14-15,44-12c79,5,87-18,9-29
		c-47-7-59-13-52-24c3-5,11-10,16-10c6,0,8,4,5,8c-7,12,68,1,76-12c15-22,8-36-17-36c-15,0-25-6-25-14c0-10,12-13,48-11
		c27,2,61-3,79-12c39-18,127-21,168-6c56,21,100,35,146,48c63,18,129,61,129,84c0,11-12,23-30,31c-16,7-27,16-24,21s-1,9-8,9
		c-8,1-5,7,7,16c19,15,18,16-17,10c-21-4-39-2-43,4c-10,16-45,12-45-5c0-9-9-15-22-15s-51,0-85,0c-48,0-64-4-72-18c-9-16-10-16-16,1
		c-10,24-35,21-35-4c0-14-5-19-15-16c-8,4-17,2-20-3c-11-17-23-11-18,9c3,13-6,24-32,40C11922,12654,11925,12654,11906,12634z"/>
	<path class="st3" d="M12767,12323c-11-10-8-35,2-28c5,3,13,0,17-6c3-6,1-15-5-19c-9-5-7-11,5-21c16-12,17-12,11,3c-3,10-2,20,4,23
		c5,4,7,10,4,15s-1,11,5,15c5,3,10,12,10,18c0,8-3,8-9-2c-6-9-11-10-15-2C12788,12331,12777,12333,12767,12323z"/>
	<path class="st3" d="M12981,12077c-6-6-11-17-11-24c0-15-42-27-75-21c-18,4-29-1-40-19c-26-39-55-64-66-58c-5,4-16,1-25-5
		c-11-10-12-16-2-28c7-8,12-17,11-19c-2-1-3-6-3-10c0-5,4-2,9,6s11,9,15,3c3-6-9-16-29-22c-19-6-35-16-35-21c0-6,8-5,20,1
		c16,8,20,8,20-4c0-8,8-16,18-19c13-3,11-6-10-15c-16-6-28-16-28-21c0-16,20-23,34-12s26,5,26-13c0-6-5-4-10,4c-8,13-10,12-10-3
		s5-17,30-12s29,4,24-9c-3-9-10-16-15-16c-6,0-5-10,2-21c6-12,14-18,18-13c10,14,81,14,75,0c-2-6,4-21,14-31c18-21,18-55-2-67
		c-6-4-28-5-48-2c-23,2-38,0-38-6s5-8,10-5c18,11,11-4-12-25l-23-22l25,4c44,6,37-27-10-46c-56-22-52-49,9-52c48-2,84-24,40-24
		c-24,0-69-32-69-49c0-4-16-16-35-26c-19-11-32-21-29-24c11-11,38-9,61,6c14,9,34,13,51,10c21-4,33,0,45,13c13,16,27,18,86,15
		c39-2,71,0,71,5c0,4,19,7,43,6c44-3,127,26,127,43c0,6-7,11-15,11c-19,0-20,26-1,33c28,11,48,54,37,76c-14,25-66,37-89,19
		c-15-11-16-11-4,3c10,13,10,22,0,45c-6,16-12,34-12,39c-1,13-29,40-55,55c-11,6-24,23-27,38c-10,38-36,71-56,72c-24,0-23,32,2,50
		c11,8,20,20,20,26c0,7,7,20,16,28c24,25,7,36-56,36c-32,0-62,5-65,10c-3,6-1,10,5,10c7,0,23,9,37,20s22,20,18,20c-5,0,1,10,12,23
		c11,12,23,27,26,33C13042,12091,12995,12091,12981,12077z M12790,11940c0-5-5-10-11-10c-5,0-7,5-4,10c3,6,8,10,11,10
		C12788,11950,12790,11946,12790,11940z"/>
	<path class="st3" d="M12653,11762c-24-8-71-62-53-62c6,0,8-5,5-10c-3-6-26-8-51-6c-35,4-46,1-54-14c-7-13-6-20,3-23c9-4,9-7,0-18
		c-19-19-16-26,12-33c35-9,31-26-15-60c-37-28-54-66-29-66c5,0,7-5,3-12c-5-8-2-9,9-5c10,3,17,2,17-4c0-17,77,0,128,27
		c25,13,59,24,77,24c28,0,33,4,43,39c7,21,12,56,12,78c0,33,4,42,25,51c29,13,32,38,7,68C12772,11759,12693,11774,12653,11762z"/>
	<path class="st3" d="M13756,10728c-4-9-18-19-31-22s-25-14-27-24c-6-26,9-73,28-87c16-11,15-14-10-30c-21-14-29-16-35-6
		c-6,9-10,7-13-6c-3-11,1-28,8-38c8-10,12-28,9-39c-15-79-15-85,7-97c18-9,24-8,34,6c7,10,20,15,28,12c19-8,25,11,28,96
		c3,57,0,71-15,82c-16,12-17,18-7,52C13773,10669,13770,10757,13756,10728z"/>
	<path class="st3" d="M14777,10103c-4-3-7-14-7-23c0-13,12-19,42-24c23-4,45-11,48-17c4-6,27-6,60-2c51,8,70,21,41,31c-9,3-11,0-6-9
		c6-10,2-9-11,2c-10,9-41,17-69,18c-27,2-52,7-53,12c-2,5-8,6-14,3c-6-4-13-1-17,5S14781,10107,14777,10103z"/>
</g>
<g transform="translate(0,239) scale(0.016963,-0.016963)">
	<path class="st4" d="M7578,8086c-17-6-28-17-28-28c0-10-6-18-14-18c-7,0-25-9-39-20c-15-12-40-20-61-20c-23,0-39-5-42-15
		c-4-10-14-13-28-9c-41,10-96-72-87-128c0-5-4-8-10-8c-13,0-39-25-39-37c0-5-13-17-30-26c-21-13-27-23-23-35c4-9-13,4-38,30
		c-38,40-101,78-130,78c-5,0-9-13-9-28c0-20,7-33,25-42c13-7,27-22,31-32c3-11,10-15,17-11c8,4,7,1-1-9c-15-19-7-61,15-80
		c8-7,20-24,26-38c14-33,19-207,7-215c-7-4-6-13,1-26c11-22-5-89-22-89c-5,0-9-6-9-13s-16-19-35-27c-25-10-35-20-35-36
		c0-12-7-24-15-28c-11-4-14-13-10-29c6-21,1-26-39-41c-44-17-46-20-46-56c0-24-5-40-15-44c-8-3-15-17-15-30c0-15-8-30-20-36
		c-11-6-18-15-15-21c13-20,14-89,2-89c-7,0,3-13,21-29c17-16,32-34,32-40s5-11,10-11c6,0,10,5,10,12c0,6,2,9,5,6c8-8-6-38-18-38
		c-6,0-28-19-50-42c-35-39-38-47-32-83c3-22,12-47,20-56c17-18,20-39,5-39c-26,0-5-31,34-51c33-16,51-35,72-73c15-28,37-64,49-81
		c12-16,36-64,55-105c18-41,41-87,52-102c10-14,18-33,18-40c0-8,9-23,20-33s20-26,20-36s4-20,9-23c21-13,82-118,77-132
		c-9-24,12-63,61-112c47-48,183-134,241-153c17-6,32-14,32-18s16-16,35-27c19-10,35-22,35-27c0-10,26-37,35-37c18,0,51-46,62-88
		c29-108,51-342,31-342c-4,0-8-11-8-25s3-25,8-25c14,0,26-409,12-444c-6-16-4-32,7-52c10-21,13-44,8-80c-5-39-1-61,15-98
		c11-26,20-56,20-67c0-10,5-19,10-19c6,0,11-19,10-42c0-24,0-52,1-63c1-21-7-137-16-220c-2-27-5-61-5-74c0-17-4-22-16-17
		c-13,5-15,1-9-21c3-16,13-35,21-44c8-8,14-22,14-29s12-33,26-58c18-31,24-52,20-72c-9-46,5-127,26-150c10-11,14-20,7-20
		c-7,0-9-10-5-30c3-16,9-45,12-62c11-59,43-77,64-37c9,15,8,24-1,35c-6,8-8,14-4,14s2,7-5,15s-9,15-4,15c4,0,3,5-4,12
		c-17,17-15,31,4,24c12-5,15-2,10,9c-3,9-2,13,4,10s10-13,10-21s5-14,11-14c5,0,8-4,5-8c-3-5-1-24,4-43s11-56,15-83
		c3-28,11-53,17-57c9-6,7-10-7-15c-11-4-23-9-26-10c-3-2-5,9-3,24c3,27-9,42-34,42c-8,0-10-5-5-12c13-22,12-38-3-38c-7,0-18-9-24-19
		c-12-24-13-42-1-22c13,21,51-4,51-34c0-14-5-25-11-25c-7,0-9-11-6-30c4-19,1-34-8-44c-8-8-12-22-9-30c7-19,31-21,36-5
		c3,9,10,9,26,0c12-7,27-9,32-6c6,3,7-1,4-9c-3-9-2-16,4-16c18,0-3-54-26-66c-12-6-19-14-14-18c4-4,7-11,7-14c2-20,18-52,26-52
		c5,0,8-3,7-7c-2-14,19-58,35-72c9-7,19-26,22-42c4-16,11-30,16-30c5-1,15-2,22-3c6,0,15-19,18-41s7-35,8-30c1,6,11-5,23-23
		c16-26,26-32,43-28c14,4,30-2,46-17c13-12,27-21,31-19c5,1,8-3,8-9c0-11-13-9-55,6c-13,5-9-3,14-24c24-23,36-29,41-20
		c11,16,31,2,23-17c-3-8-2-14,3-13c17,4,44-13,44-27c0-9,11-14,30-14c23,0,28,4,23,16c-3,9-13,14-24,11s-19-1-19,4c0,19,40,8,51-13
		c7-13,11-25,10-28s5-9,15-15c10-5,24-16,32-23c17-16,32-16,32,1c0,8,3,7,10-3c5-8,13-15,17-16c4,0,21-6,36-12c16-7,32-10,37-7
		s11,1,15-5s11-8,16-5c5,4,9,2,9-4s20-10,45-9c25,0,52-5,60-12c9-7,19-10,23-6s-2,14-12,21c-16,13-12,14,39,10c47-3,56-2,51,10
		c-3,9,1,15,10,15c8,0,17,7,20,15c4,8,11,15,16,15c6,0,5-6-2-15c-10-12-10-15,4-15c9,0,16,8,16,20c0,16-7,20-35,20
		c-52,0-160,57-219,115c-29,29-50,57-48,63s-9,18-23,28c-33,22-85,96-85,123c0,14,8,23,25,27c30,7,39,32,25,69c-12,31-7,40,47,88
		c19,17,30,34,26,41c-4,6-9,20-10,30c-5,31-23,46-54,46c-32,0-95,34-108,59c-23,41,16,101,66,101c25,0,39,15,22,26c-8,5-7,9,2,14
		c10,7,9,17-4,50l-16,43l30,28c17,16,37,29,45,29c16,0,18,23,4,50c-9,16-18,19-54,14l-44-6l-24,53c-14,30-21,56-16,57
		c5,2,27-3,49-12c47-19,79-20,114-4c26,11,34,41,14,54c-7,4-8,20-4,41c5,26,2,40-11,54c-17,19-17,20,1,13c13-5,16-4,11,4
		c-5,9,6,12,39,12c107,0,245,50,245,88c0,10,4,22,9,27c35,39,30,125-8,125c-20,0-31,18-31,54c0,26-24,50-72,74c-18,10-35,26-37,37
		c-3,19-3,19,16,3c11-10,34-18,51-18c18,0,32-4,32-9c0-13,47-24,115-26c83-4,120,18,131,74c4,17,9,31,13,31c12,0,38,54,45,91
		c4,23,19,46,41,66c25,22,33,36,28,49c-6,15-7,15-14-5c-8-20-35-38-44-29c-3,2,6,20,20,38c14,19,25,44,25,55c0,13,6,22,16,22
		c11,0,14-7,11-23c-2-13,2-25,9-28c9-3,17,9,25,37c26,94,32,108,60,138c39,41,52,107,34,160c-13,36-17,149-6,146c8-2,91,83,91,93
		c0,5,14,11,30,15c17,4,30,11,30,17s13,8,35,4s35-3,35,4c0,5-5,10-11,10c-5,0-8,4-5,9c11,17,136,52,189,52c51,1,55,3,60,28
		c4,15,19,33,38,44c25,14,30,22,25,40c-5,20,13,67,70,178c9,17,11,43,8,76c-5,39-3,53,12,67c17,17,29,99,26,181c0,17-2,75-4,130
		c-4,95,3,125,28,125c11,0,33,31,55,80c35,79,43,92,67,114c31,29,110,139,122,170c23,60,22,132-3,220c-14,48-28,90-31,93
		c-4,4-33,10-65,14c-64,7-65,8-146,86c-30,28-79,66-110,83c-50,29-59,31-99,22c-32-7-50-5-70,5c-15,8-31,11-37,8c-5-4-21,0-34,9
		c-30,20-89,31-80,15c5-8,0-9-16-4c-29,10-47,27-42,41c2,7-3,19-12,27c-8,9-15,20-15,26s-4,11-10,11c-5,0-10-4-10-10
		c0-11-71,19-82,35c-4,6-8,6-8,1s-6-3-14,3c-14,11-39,19-83,26c-27,4-62-20-74-52c-16-42-19-21-4,22c20,58,19,62-22,68
		c-23,4-43,15-51,27c-7,11-18,20-26,20c-14,0-14,14,0,72c4,20,0,35-17,57c-13,16-29,30-34,30c-12,1-35,78-35,119c0,23-39,91-40,70
		c0-4-25,17-57,47c-31,30-61,55-68,55s-26,7-44,16c-36,18-152,28-161,14c-11-18-85,11-128,51c-24,21-48,39-53,39s-9,10-9,23
		c-1,12-9,32-19,44c-28,34-110,81-130,76c-22-6-37,13-24,30c15,20,9,41-14,52c-13,5-23,13-23,17c0,5-8,8-18,8s-24,6-30,12
		c-10,10-15,10-22-2c-6-9-10-10-10-3c0,6-3,18-6,27c-4,10-1,16,8,16c8,0,23,7,34,15c17,15,11,15-76,11c-52-3-98-6-102-6
		c-5,0-8-6-8-13c0-8-11-19-24-26c-30-16-96,2-96,26c0,13-12,14-85,8l-85-7v26c0,29-48,66-87,66c-17,0-23,6-23,23c0,29-7,37-26,30
		c-8-3-14-19-14-39c0-28-4-35-27-40c-16-4-41-16-57-27c-25-18-29-18-23-4c3,9,2,17-3,17c-6,0-10,9-10,20c0,12,7,20,16,20
		c18,0,43,27,44,47C7640,8087,7607,8098,7578,8086z M7620,7850c0-24-16-50-30-50c-4,0-13,17-20,39c-11,34-10,41,6,60l18,21l13-23
		C7614,7885,7619,7864,7620,7850z M7807,5657c14-16,19-28,13-37c-7-12-10-11-16,3c-3,9-12,17-19,17s-15,9-18,20
		C7760,5687,7780,5685,7807,5657z M9740,5010c0-5-2-10-4-10c-3,0-8,5-11,10c-3,6-1,10,4,10C9735,5020,9740,5016,9740,5010z
		 M9367,4358c-3-8-6-5-6,6c-1,11,2,17,5,13C9369,4374,9370,4365,9367,4358z M8645,3320c3-5-3-10-14-10c-12,0-21,5-21,10
		c0,6,6,10,14,10S8642,3326,8645,3320z M8104,3155c-4-8-10-12-15-9c-11,6-2,24,11,24C8105,3170,8107,3163,8104,3155z M8085,3119
		c10-30,0-33-13-4c-6,14-7,25-2,25S8082,3131,8085,3119z M8130,3086c0-2-7-6-15-10c-8-3-15-1-15,4c0,6,7,10,15,10
		S8130,3088,8130,3086z M8580,2450c0-24,17-34,55-32c29,2,29,1,7-11c-12-7-19-17-15-23c5-5-1,0-11,11c-14,15-20,17-24,7
		c-2-9-9-4-18,13c-16,32-19,69-4,60C8576,2472,8580,2460,8580,2450z M8515,2451c-3-6-14-11-23-11c-13,0-13,2,4,14
		C8517,2469,8526,2468,8515,2451z"/>
	<path class="st4" d="M9195,2601c-11-5-27-6-35-3c-12,4-13,2-2-9c17-18,15-40-3-33c-28,11-15-15,14-31c29-15,30-14,62,23
		c17,21,28,28,24,17c-18-48-18-55,1-55c11,0,41,13,67,29c43,25,46,29,31,42c-9,8-38,15-63,16c-25,0-53,4-61,6
		C9222,2606,9206,2605,9195,2601z"/>
</g>
<g transform="translate(0,239) scale(0.016963,-0.016963)">
	<path class="st5" d="M11660,13759c-74-4-196-10-270-13s-148-9-165-13c-16-3-41-5-55-4l-25,3l25-21c20-16,22-20,8-21
		c-9,0-20,5-24,11c-3,6-15,9-25,6c-11-3-26,1-33,9c-17,16-30,19-21,4c4-6-9-10-30-10c-30,0-36-3-31-16s2-15-16-9c-56,16-92,16-105-1
		c-12-17-13-17-13,1c0,17-8,18-113,12c-62-4-142-9-177-12c-36-3-59-3-52,1c24,12,11,24-26,24c-21,0-43,5-50,12c-8,8-110,12-354,13
		c-349,2-462-4-533-28c-28-10-51-11-82-5c-28,6-61,6-96-2c-30-6-90-13-133-15c-115-6-184-16-184-26c0-5,9-9,20-9s20-6,20-14
		c0-7,15-18,33-24c22-7,26-10,12-11c-12-1-27-7-34-13c-10-11-12-10-9,1c2,8-7,15-21,17c-14,3-33,13-43,24c-14,15-32,20-68,20
		c-27,0-52-4-55-10c-3-5-22-10-41-10s-34-4-34-10c0-5-10-10-22-11c-13,0-43-8-68-18c-35-15-44-23-44-42c-1-19,6-25,29-28
		c22-2,25-5,13-10c-16-6-16-8,2-31c18-24,22-25,152-26c135-1,204-14,164-30c-13-5-21-3-24,4c-4,12-78,17-105,6c-9-3-13-13-9-26
		c4-18,2-20-16-15c-12,3-47-1-77-8s-56-10-59-8c-8,8-46-8-46-18c0-6,5-7,12-3c7,5,8,3,4-5c-6-9-12-8-26,4c-14,13-29,15-63,10
		c-29-4-47-3-51,4c-4,6-18,11-31,11s-26,4-29,9c-6,10-98,2-106-9c-3-4-12-10-20-13c-12-4-12-6,2-6c17-1,36-46,25-57c-2-3-36-7-73-9
		l-69-5l29,26c26,24,26,28,12,43c-13,13-20,13-36,3c-24-15-33-15-25-2c9,15-60,12-121-6c-34-10-54-21-54-30c0-8-5-12-10-9
		c-6,4-8,10-5,15c8,13-42,40-61,33c-24-9-57-43-42-43c6,0,8-3,5-7c-13-12,29-32,69-33c34,0,42-3,40-17c-1-16,8-18,73-15
		c55,2,77,7,86,19c8,11,18,14,31,8c13-5,15-9,6-12c-10-4-8-9,5-19c11-8,13-13,6-14c-18,0-16-20,2-20c8,0,15,4,15,9c0,4,22,6,49,3
		c44-4,53-1,77,23c22,22,24,29,13,37c-11,7-11,11-1,15c6,2,12,11,12,19c0,21,86,19,94-2c4-9,5-18,4-18c-2-1-15-7-29-13
		c-24-10-47-51-31-54c31-6,81-9,235-15c128-5,181-3,191,5c11,9,16,9,21,0c8-12,117-6,175,11c32,9,60,32,60,49c0,31-138,38-274,15
		c-44-7-83-11-88-8s-29,7-54,8c-45,3-89,26-48,26c12,0,24,3,28,8c4,4,65,8,134,8c70,1,154,2,187,3s69,2,80,1c20-1,20-1,0-11
		c-14-6-2-8,40-4c44,3,54,2,38-5c-30-12-29-20,3-20c17,0,28,6,31,20c3,12,14,20,28,20c37,0,85,21,85,37c0,11-7,14-26,9
		c-17-5-23-3-19,4c3,5,16,10,28,10s36,7,52,16c17,9,53,18,80,20c70,6,92,14,74,25c-9,6-3,7,17,3c19-4,34-1,38,5s15,11,25,11
		s28,11,40,24c23,24,49,31,160,42c30,2,69,12,87,20c18,9,38,17,46,18c209,38,266,51,255,58c-6,4,5,5,25,1c21-3,43-1,50,5
		c14,10,158,36,165,28c2-2-3-11-12-20c-11-11-35-16-73-16c-76-1-284-42-290-58c-2-8,10-12,42-12c25,0,46-4,46-10c0-19-47-33-140-41
		c-146-12-303-36-333-52l-27-14l26-11c14-7,33-12,44-12c10,0,21-4,24-8c2-4-20-7-50-6s-57-2-60-7s6-9,20-9c17,0,24-4,20-13
		c-9-23,70-69,128-75c35-3,49-1,44,6c-4,7,3,8,25,2c18-5,35-7,40-4c24,15,170,11,243-7c79-19,104-29,73-29c-23,0-11-27,16-34
		c21-6,21-7,4-20c-18-14-18-14,0-19c14-4,13-5-5-6c-13,0-21-5-17-11c3-5,13-7,23-4c11,4,9-2-8-17l-25-22l23,6c23,5,23,5,6-14
		c-16-17-16-22-4-29c12-8,10-10-7-10c-25,0-31-15-10-24c8-3,3-13-16-28c-24-21-26-26-14-43c11-14,22-17,50-12c20,3,39,2,42-4
		c3-5-1-6-9-3c-9,3-16,1-16-5s9-11,21-11c14,0,19,6,17,18c-1,9,2,17,7,17s9-6,7-12c-2-8,7-13,20-13c17,0,24-6,25-20
		c2-21-11-27-22-10c-8,13-122,13-129,1c-4-5,0-12,6-15c7-3,0-4-15-1c-16,3-26,2-23-3s-3-21-14-34l-19-25l32-18c29-15,38-15,86-3
		c62,15,73,29,35,47c-15,6-24,15-20,18c3,4,12,1,18-5c7-7,22-12,34-12c28,0,29-32,2-72c-17-25-23-26-66-21c-45,5-50,3-74-26
		c-15-17-29-31-33-31c-11,0-55-53-55-66c0-8,8-14,18-15c13,0,12-2-5-9c-25-10-48-46-34-54c5-3,7-16,3-28c-4-17-2-20,13-15
		c13,5,16,3,11-8c-3-8-2-15,3-15s3-17-4-37c-11-33-11-39,2-47c11-6,12-10,4-15c-15-9,3-61,20-61c7,0,9-11,6-30c-4-16-3-30,2-30
		c4,0,13-18,20-39c6-21,18-42,26-45s15-15,15-26c0-22,12-25,38-11c24,12,112-15,112-35c0-8,8-17,18-20c9-3,27-10,39-16
		c28-14,75,2,88,30c5,12,15,22,22,22c6,0,14,9,18,20c3,10,21,34,39,52s36,46,40,61c4,17,17,32,32,37c13,5,37,21,52,35s35,28,45,31
		c9,3,17,12,17,19c0,8,10,23,21,34c14,13,20,27,16,40c-3,11-2,19,2,18c13-4,71,26,65,34c-3,5,16,9,41,9c34,0,44,3,39,13
		c-6,9-4,9,7,1c21-16,69-26,69-14c0,5,7,10,15,10s15,5,15,11c0,5,5,7,10,4c6-4,16-3,23,2s37,17,67,27c33,11,75,35,105,62
		c28,24,62,46,77,50c16,3,32,13,38,22c8,14,11,15,19,3c6-10,21-12,53-7c144,22,293,55,336,76c23,11,45,20,49,20c5,0,39,13,76,29
		l68,28l-58,7c-81,9-153,23-125,25c18,1,23,6,20,24c-2,18,2,22,26,22c21,0,30-5,32-18c1-11,5-22,9-25c9-10,114-19,126-11
		c6,4,13,26,14,50c2,41,0,44-34,61c-30,14-32,16-8,11c32-6,66,15,45,28c-10,7-8,9,5,9s17,5,12,19c-6,20,16,31,66,31
		c41,0,66,34,32,43c-13,3-11,5,7,7c14,1,29,2,34,1c15-3,90,32,102,48c6,8,18,11,27,8s19-2,22,3c4,6-1,10-10,10s-13,5-10,10
		c4,6-6,10-23,10c-29,0-48-22-36-41c6-10-39-13-49-2c-4,3,2,13,13,20c28,20,23,70-8,91c-29,19-15,29,32,24c26-3,33-8,29-20
		c-4-9-2-13,4-9c7,5,9,0,6-13c-8-31,7-23,18,10c6,17,18,30,26,30s13,7,11,18c-2,12-14,17-41,19c-21,0-41,4-45,8c-4,5,3,6,14,3
		c12-3,28-2,35,3c10,6,6,10-13,18c-14,5-29,15-33,21c-5,8-11,8-21-1c-24-20-29,0-5,20c18,16,32,19,64,14c34-4,39-3,34,11
		c-4,11-1,16,11,17c14,0,14,2-3,9c-25,10-11,16,54,23c24,3,47,10,50,15c3,6,23,13,43,17c21,4,35,11,32,16s11,9,30,9s37,4,40,8
		c3,5,37,14,76,21c101,18,77,32-64,39c-83,3-120,1-130-7c-17-14-60-5-51,10c4,5-1,9-9,9c-9,0-15-5-13-12c1-6-6-14-16-16s-16,2-15,9
		c2,7-6,15-17,17s-17,1-12-4c4-4-14-16-40-26c-57-22-63-22-38-5c10,8,15,19,11,26c-4,6,0,13,8,16c9,3,23,7,32,10c27,9,13,13-60,20
		c-38,4-86,13-106,20C12152,13762,11839,13770,11660,13759z M11267,13685c0-17,0-17-23-8c-16,6-16,7,2,14c10,4,19,8,20,8
		C11266,13700,11267,13693,11267,13685z M12230,13680c-8-5-24-9-35-9c-16,1-16,2,5,9C12235,13691,12248,13691,12230,13680z
		 M9207,13664c-3-3-12-4-19-1c-8,3-5,6,6,6C9205,13670,9211,13667,9207,13664z M9257,13592c-24-2-42-10-50-23c-16-26-25-24-20,5
		c5,27,35,36,83,26C9290,13596,9288,13594,9257,13592z M9415,13600c3-5-2-10-11-10c-16,0-16-1,2-15s17-14-8-4c-22,10-25,15-17,26
		C9395,13613,9407,13614,9415,13600z M9250,13533c0-9-3-12-7-7c-5,5-12,12-18,16s-2,8,8,8C9242,13550,9250,13543,9250,13533z
		 M9230,13516c0-3-4-8-10-11c-5-3-10-1-10,4c0,6,5,11,10,11C9226,13520,9230,13518,9230,13516z M9040,13475c-7-8-17-15-23-15
		s-2,7,9,15C9051,13494,9056,13494,9040,13475z M10013,13413c-7-2-19-2-25,0c-7,3-2,5,12,5S10019,13416,10013,13413z M9863,13403
		c-7-2-19-2-25,0c-7,3-2,5,12,5S9869,13406,9863,13403z M8215,13339c11-17-1-21-15-4c-8,9-8,15-2,15
		C8204,13350,8212,13345,8215,13339z M8057,13324c-3-3-12-4-19-1c-8,3-5,6,6,6C8055,13330,8061,13327,8057,13324z M12015,13150
		c3-5,1-10-4-10c-6,0-11,5-11,10c0,6,2,10,4,10C12007,13160,12012,13156,12015,13150z M11993,13120c-29-12-30-37-2-45
		c27-9,20-16-9-8c-13,3-22,13-22,24c0,10-8,23-17,28c-14,8-8,10,27,10C12007,13129,12011,13127,11993,13120z M12083,13123
		c-7-2-21-2-30,0c-10,3-4,5,12,5C12082,13128,12089,13126,12083,13123z M12087,13104c-3-3-12-4-19-1c-8,3-5,6,6,6
		C12085,13110,12091,13107,12087,13104z M10205,12472c-3-3-11,0-18,7c-9,10-8,11,6,5C10203,12481,10208,12475,10205,12472z"/>
	<path class="st5" d="M8270,13531c-25-3-45-11-45-18s-9-19-20-27s-18-17-15-20c3-3,39-7,79-10c40-2,78-9,84-15s28-11,48-11
		c32,0,40,5,52,30c15,29,15,30-16,44c-18,8-43,16-57,19s-34,7-45,10C8324,13535,8295,13535,8270,13531z"/>
	<path class="st5" d="M7853,13486c-78-12-106-26-52-26c19,0,39-4,45-8c7-4-19-7-57-7c-51,0-72-4-79-15c-14-23,16-33,82-26
		c61,6,111,29,86,39c-7,3,2,3,21,0c24-4,32-3,27,5s1,12,16,12c13,0,30,5,38,10c13,9,13,11,0,20C7962,13501,7948,13501,7853,13486z"
		/>
	<path class="st5" d="M7430,13411c-66-6-114-17-226-52c-17-5-42-9-56-9s-39-5-57-11c-38-14-43-38-5-31c16,3,29-1,34-9
		c7-11,13-10,29,5c14,13,21,15,21,6s9-11,32-6c30,6,31,5,13-8c-19-15-19-15,7-16c15,0,38,4,52,10c14,5,26,7,26,5c0-3-12-10-27-16
		c-24-9-26-12-11-20c9-5,36-11,60-13c26-2,42-7,40-15c-6-28,50-32,172-12c67,11,162,22,211,25c73,4,101,10,143,32c62,32,56,49-14,45
		l-47-2l16,24c15,24,13,37-5,37c-5,0-6-5-2-12s3-8-5-4c-6,4-28,2-49-4c-72-22-68-20-52-30c12-8,10-10-7-10c-27,0-31-17-5-23
		c9-3-9-5-41-6c-32,0-56,3-53,8c12,19-33,41-95,48c-63,6-64,7-34,19c17,7,26,14,20,15c-5,1,3,4,19,8c17,3,30,11,30,16
		C7565,13418,7526,13419,7430,13411z M7409,13319l46-8l-47,3c-25,2-52,0-60-5c-10-7-8-9,7-10c11,0,15-3,9-5c-6-3-22,0-35,5
		c-17,7-19,10-6,10c9,1,17,6,17,12c0,7-12,8-32,4c-33-6-33-6-8,8c17,9,31,11,44,4C7354,13332,7383,13324,7409,13319z M7445,13340
		c-3-5-15-10-26-10s-17,5-14,10c3,6,15,10,26,10S7448,13346,7445,13340z M7435,13250c4-6-7-10-27-9c-31,1-32,1-8,9c14,4,26,8,27,9
		S7432,13256,7435,13250z"/>
	<path class="st5" d="M6827,13213c-17-3-32-14-39-29c-6-13-17-24-23-24c-7,0-33-11-59-25s-52-25-58-25s-19-6-27-14c-9-7-37-21-63-31
		s-45-21-42-26c2-4,10-6,17-4c19,7,50-22,43-40c-9-23,15-28,65-12c24,8,62,15,83,16c22,1,51,10,65,20c34,24,149,62,156,51
		c3-4-10-11-28-14c-17-4-41-13-51-21c-19-15-19-15-1-28c17-13,16-15-13-25c-37-13-38-15-16-36c13-14,31-15,107-10c103,8,101,8,141,6
		c16-1,27-5,23-8c-3-3-57-7-119-9c-150-3-198-12-198-36c0-33,28-49,88-49c43,0,53-3,44-12c-7-7-12-19-12-28c0-15,12-16,88-14
		c48,2,110,8,137,14c28,6,70,13,95,15l45,4l-40-8c-82-17-101-30-95-70c1-10-7-12-37-6c-41,7-50,12-41,21c4,3,15,1,26-5
		c24-13,36-3,17,15c-11,11-20,12-42,3c-56-22-182-31-217-15c-14,7-17,6-12-2c5-9-6-12-39-10c-53,2-42,14,23,24c52,8,62,22,33,45
		c-16,13-38,18-79,17c-31-1-79,6-105,15s-54,17-61,17c-8,0-19,7-26,15c-17,20-98,20-138-1c-18-8-41-13-52-9c-21,7-28,25-10,25
		c6,0,10-4,10-10c0-5,5-10,11-10c5,0,8,4,5,9s1,11,9,15c8,3,15,10,15,16c0,12-48,3-70-14c-14-12-66-36-76-36c-2,0-1,18,2,40
		c5,32,3,41-11,46c-9,4-20,2-25-5c-10-17-58-41-81-41c-13,0-17,5-12,17c5,13,3,15-13,9c-10-5-28-10-39-11c-68-10-189-36-203-45
		c-13-8-10-9,13-5c26,5,27,5,11-5c-14-10-24-9-45,1c-28,14-121,19-121,7c0-5-9-8-19-8c-11,0-27-8-36-17c-29-29-141-12-129,20
		c3,9-10,13-48,15c-69,3-108,11-108,24c0,5-30,9-72,8c-40,0-102,4-138,10s-103,14-150,18c-63,5-84,10-82,20c2,11-10,13-53,10
		c-39-2-56,1-60,11c-3,7-12,11-20,7c-8-3-18,1-23,10c-7,12-16,11-67-7c-33-11-89-22-125-24s-92-10-125-19c-32-9-73-16-91-16
		c-35,0-111-25-195-64c-34-16-91-31-140-37c-46-6-97-17-112-25c-16-8-37-14-48-14c-25,0-24-17,1-25c27-9,46-43,31-58
		c-17-17-13-27,9-27c14,0,18-5,13-17c-9-25-43-53-62-52c-28,2-77,17-60,18c9,0,22,8,29,16c16,20,5,20-85-1c-86-19-134-30-205-44
		c-61-13-82-26-57-36c15-6,15-9-3-34c-27-37-16-43,73-42c39,1,76-3,82-8c8-7,24-5,48,5c42,17,71,20,47,5c-12-8-12-10-1-10
		c21,0-35-49-64-56c-14-3-41-3-60,0c-20,4-35,3-35-3c0-16-62-32-98-25c-34,7-60-2-114-38c-14-10-33-18-42-18c-16,0-87-30-96-41
		c-3-3-18-9-33-13c-28-7-53-48-41-67c3-5-6-13-19-18c-21-8-25-16-24-45c1-32,4-36,26-36c15,0,43,4,63,9c34,8,37,7,28-9
		c-6-10-19-21-29-25c-11-3-26-17-35-30c-9-14-24-25-33-25c-12,0-14-3-6-11s17-8,33,1c15,8,20,8,16,1c-10-15,0-14,34,4
		c35,18,84,10,76-11c-7-19,24-18,38,2c9,11,18,13,36,6c24-9,24-9-20-42c-25-18-65-41-90-52s-54-23-65-28s-54-20-95-33
		c-91-30-130-47-130-59c0-5-9-4-19,1c-19,11-51,2-166-42c-67-26-79-29-117-33c-48-5-123-43-110-56c6-6,17-6,30,1c11,6,33,11,49,11
		c15,0,41,7,58,16c16,8,39,13,50,10s29,2,39,9c10,8,22,12,27,10c4-3,10-1,14,5c11,19,56,11,62-10c6-23,14-25,31-8c8,8,15,8,26-1
		c12-10,17-8,26,8c9,17,8,21-5,21c-8,0-15,7-15,16c0,12,6,15,25,10c16-4,34,0,50,10c13,8,29,13,34,9c12-7,78,21,99,42
		c8,7,18,11,23,8c5-4,9-1,9,5s12,8,31,5c18-3,28-2,25,4c-3,5,12,12,34,16s50,14,62,24c19,14,46,25,118,46c3,1,18,7,33,13
		c16,7,36,12,45,12s35,11,57,25c22,13,50,25,61,25c30,0,53,28,33,41c-11,7-10,9,6,10c11,1,25,1,31,0c7-1,14,5,18,14c3,8,17,15,31,15
		s25,5,25,10c0,6,8,10,18,10s26,6,37,13c28,19,55,28,55,18c0-4-12-13-26-19c-14-7-22-17-19-22c4-6-7-15-24-21s-31-15-31-20
		c0-16,53-9,123,15c37,13,67,22,67,19s6-1,13,5c15,13,76,17,99,7c11-4,35,2,63,15c41,20,59,40,35,40c-5,0-10-4-10-10c0-5-4-10-9-10
		s-8,8-6,18c1,11,10,16,24,15c11-2,21,2,21,7c0,6,11,10,25,10c29,0,30-22,1-30c-11-3-21-11-23-17c-3-9,5-9,30-1c24,7,43,7,63,0
		c28-10,28-11,7-17c-13-4-23-12-23-17c0-6,7-7,18-2c9,4,49,9,88,12c54,3,79,0,104-13c20-10,42-14,59-11c17,5,22,4,12-3
		c-11-7-9-13,12-31c14-12,28-33,31-46c4-13,11-24,16-24c16,0-2-74-24-99c-14-16-16-22-6-19c11,4,15-1,15-17c0-13-3-21-7-18
		c-5,2-8-3-8-11c0-23,16-20,34,6c9,12,18,19,21,16s-8-17-25-31c-36-31-37-37-7-38h22l-22-9c-19-8-22-16-19-42c3-28,7-33,33-35
		c20-2,37,4,48,17c17,19,19,19,31,2c12-16,13-15,24,8l10,25l-5-27c-3-15-1-30,5-33c5-3,10-12,10-18c0-8-3-7-9,2c-7,11-11,10-19-5
		c-6-10-14-16-17-12c-10,10-38-19-30-31c3-5,1-12-5-16c-15-10-12-22,12-45c12-11,16-20,9-20s-11-9-9-22s9-22,17-20c9,2,7-8-7-32
		c-14-23-17-38-10-42s6-9-2-14c-10-6-5-15,16-36c21-20,24-25,9-19c-26,10-44,10-72,1c-14-4-23-3-23,3c0,5,10,12,23,14c19,3,19,4-3,3
		c-21-1-25-6-23-28c1-16-3-28-10-28s-1-6,13-13s26-18,26-25c1-7,2-16,3-21c0-5,10-13,21-16c11-4,18-11,15-16c-4-5,1-12,9-15
		c9-3,13-10,10-15s1-9,8-9s21-7,32-15c17-13,17-14-9-12c-30,2-34-3-59-81c-17-52-74-158-99-184c-7-7-24-29-37-48s-42-54-64-78
		c-55-59-73-89-91-147c-8-27-32-72-54-98c-34-40-38-51-29-67c9-14,7-26-6-55c-15-30-16-42-7-62c7-14,9-33,6-43s-1-21,4-24
		c5-4,7-22,4-42c-4-25-2-39,8-45c12-8,12-10,0-18c-13-8-13-18-1-68c8-32,14-74,14-93c1-33,3-35,39-38c24-2,37-8,37-18
		c0-12,19-19,44-15c5,1,6-5,3-14c-4-9-1-15,7-15c25,0,45-35,45-80c0-44,8-165,11-165c1,0,3-24,5-54c3-39,9-57,24-67
		c11-8,29-30,41-49c21-33,21-37,6-60c-16-25-25-29-58-26c-10,1-18-1-18-6c0-17,82-103,92-97c12,8,78-61,78-80c0-8-7-27-15-42
		c-8-16-15-36-15-44c0-20,19-40,38-40c23,0,92-80,92-107c0-16,4-23,13-19c6,3,20,9,31,12c15,6,17,14,12,43c-3,20-6,44-6,54
		c0,9-5,17-11,17c-5,0-7-6-4-12c4-7-2-2-13,11c-19,23-20,23-25,5c-3-14-5-12-6,8c0,15,4,30,9,33c15,9,12,25-4,25c-15,0-28,58-14,66
		c4,3,8,10,8,15c0,6-4,7-10,4s-10,5-10,18c0,25-38,109-52,115c-12,6-9,57,4,70c6,6,8,15,4,19s-11,1-16-7c-8-12-10-10-10,7
		c0,12-4,25-10,28c-5,3-10,11-10,18c0,6,7,2,16-9c15-18,15-18,9,11c-8,37-14,43-24,26c-6-9-13-4-28,19c-18,28-18,36-7,91
		c14,70,17,74,41,64c10-5,22-7,26-6c14,3,50-38,45-51c-3-7-2-38,2-68c5-39,4-63-6-81c-12-25-10-39,7-39c4,0,5,10,2,23s3,8,13-13
		c10-19,24-41,31-48s13-17,13-22s8-11,19-15c13-4,17-12,13-31c-3-20,0-26,17-31c11-3,21-13,21-23s10-20,22-23c20-6,20-7,5-31
		c-10-14-17-31-17-37c0-13,38-49,52-49c5,0,14-12,21-27c6-16,23-39,38-53c14-14,34-41,44-60c9-19,28-49,40-66c22-28,26-50,26-134
		c0-62-2-70-17-70c-21,0-17-44,9-83c12-19,38-43,57-53s39-29,44-41c9-20,67-46,102-46c9,0,30-14,48-32c30-31,133-85,161-85
		c7,0,20-6,27-12c21-20,74-48,91-48c8,0,27-6,42-14c29-15,59-10,117,18c17,9,39,16,48,16c41,0,91-32,129-83c62-83,92-107,147-116
		c27-4,58-12,69-18c57-30,96-41,139-38c37,2,44,0,32-9c-14-9-11-17,22-53c91-104,109-138,89-171c-13-20,2-50,33-66c27-13,31-13,40,2
		c9,16,9,16,10,0c0-9,15-24,34-33c35-17,52-40,36-50c-12-7-1-35,13-35c6,0,21-10,34-22c21-19,23-20,23-4c0,12,5,16,16,12
		c9-3,24-6,34-6c21,0,35-29,20-44c-14-14-12-26,5-26c9,0,12,6,9,15c-9,24,22,8,40-21c16-23,17-23,51-7c38,18,42,29,20,59
		c-20,26-19,27,15,42c17,8,30,20,30,27s7,15,15,19c14,5,22,66,9,66c-3,0-35-16-70-35c-72-40-80-41-106-18c-13,11-18,12-18,3
		c0-10-3-10-14,0c-8,6-13,17-10,24s-7,18-21,24s-25,18-25,27c0,8-5,15-10,15c-6,0-15,12-20,28c-6,15-15,37-21,48c-8,16-8,27,0,42
		c6,11,11,32,11,46s5,26,10,26c6,0,10,24,10,53c0,33,7,66,19,88c11,20,17,46,15,57c-3,11-1,23,6,27s1,15-17,31c-15,13-35,31-44,39
		c-20,19-139,36-156,23c-14-11-97-13-113-3c-6,4-17,1-25-5c-12-10-18-10-30,0c-8,6-20,8-27,4s0,6,15,23c16,17,30,46,34,69
		c3,21,10,45,16,52c5,6,7,12,4,12s5,11,18,25c14,13,25,31,25,39s5,27,12,43c6,15,12,36,12,45c1,9,4,20,9,24c4,4,7,15,7,24
		c0,10,7,23,15,30c13,11,14,10,9-4c-9-23,9-20,24,4c8,13,8,20,2,20c-7,0-7,7,0,21c7,11,9,31,6,44c-6,22-10,23-68,20
		c-35-1-93-10-129-19c-52-14-69-22-78-42c-6-14-11-30-11-35c0-6-11-34-24-62c-24-54-68-86-126-93c-54-6-130-23-150-34
		c-18-10-25-8-46,13c-13,14-37,27-52,30c-27,6-43,30-57,92c-3,17-14,38-23,48s-17,37-18,60s-6,53-11,67c-6,14-9,34-7,45
		c16,99,54,213,84,255c14,20,22,49,25,91c6,91,28,118,159,196c146,88,198,107,223,82c5-5,33-11,62-11c35-1,51-6,51-15
		c0-7,6-14,13-15c42-5,73-3,79,6c7,11,40,18,34,8c-2-4-1-15,3-25c6-16,8-16,26-2c20,15,20,15-3,33c-22,17-22,18-3,34
		c10,8,20,21,23,28c6,19,216,22,246,4c12-8,22-21,22-28c0-25,33-28,62-6c34,25,58,23,74-8c6-12,18-30,27-40c21-23,21-45,2-81
		c-7-15-13-39-11-52c7-61,19-109,27-109c5,0,9-7,9-15s9-23,20-32c11-10,20-30,20-45c0-21,4-26,16-21c9,3,20,0,25-8c8-12,11-12,18,1
		c5,8,10,20,11,25c0,6,7,19,14,30c27,44,36,99,25,163c-5,35-7,67-4,72c3,4-2,37-11,71c-32,126,23,236,151,299c16,8,48,34,71,58
		c27,28,49,42,67,42c14,0,29,5,32,10c13,20,85,60,109,60c30,0,56,28,37,39c-9,6,0,15,28,28c38,19,40,19,30,2c-5-11-17-19-27-20
		c-9,0-12-3-5-5c7-3,21,0,32,6c18,9,21,20,21,78c0,38-5,73-10,78c-8,8-7,20,1,40c6,16,13,38,15,48c6,34,21,38,19,6c-1-17-7-36-13-42
		c-7-7-12-21-12-32c0-19,3-17,24,9c13,16,22,34,19,39c-4,5-1,6,5,2c7-4,23,5,38,21c20,22,25,35,21,60c-3,18-1,35,4,38c5,4,9-1,9-9
		c0-23,6-20,54,19c23,19,48,50,55,69c13,31,20,35,70,45c70,15,126,39,96,41c-11,1,1,8,28,15c26,7,56,11,66,8s22,0,25,6
		c4,6,15,11,26,11c21,0,35,29,20,44c-7,7-10,5-10-7c0-24-19-21-29,6c-7,15-5,25,5,33c8,6,14,18,14,26c0,30,65,74,150,103
		c47,16,95,35,107,42c12,8,35,15,52,15c29,1,45,17,19,19c-18,1,23,16,58,22c16,3,41,10,56,16c16,6,30,7,33,1c3-5-25-24-61-42
		c-58-28-68-37-70-62c-2-16,3-35,11-42c16-16,45-19,45-4c0,6,9,10,20,10s20,4,20,9c0,14,78,63,89,56c6-3,16-3,23,1
		c22,14,172,63,177,59c2-3,10,4,18,15s21,20,30,20c22,0,73,32,73,47c0,7-7,13-15,13c-18,0-19,4-3,30c10,15,10,22,0,32
		c-9,9-25-2-72-50c-33-34-60-58-60-52s-9,6-22,1c-27-9-111,6-103,19c7,11,55,9,55-2c0-4,9-8,20-8s20,4,20,10c0,5,12,16,28,24
		c27,15,26,15-28,16c-64,0-83,9-74,35c5,13,3,16-7,13c-8-3-13-10-12-16c2-6-4-9-12-6c-19,8-19-10,0-30c20-20,19-25-5-19
		c-21,6-32,34-27,67c2,11,19,35,38,53l34,34l-27-6c-41-10-34,3,12,21c80,32,58,90-33,87c-61-2-193-43-253-78c-56-33-62-32-22,4
		c39,33,113,71,141,71c11,0,32,13,47,29c14,17,38,35,54,41c17,6,111,10,238,9c126-1,213,3,217,9c3,5,16,12,29,16c12,4,34,18,50,30
		c33,27,84,46,126,46h31l-45-44c-72-69-120-123-120-135c0-6-7-11-15-11c-9,0-18-7-21-15c-4-8-10-12-15-9c-9,5-39-18-39-31
		c0-3,10-4,23,0c12,3,3-6-21-21c-70-43-55-54,83-59c255-11,235-8,219-26c-17-18-18-39-3-39c5,0,8,4,4,9c-3,5-1,13,5,16c6,4,10,3,9-2
		c-5-30,2-40,26-35c38,7,98,102,65,102c-5,0-10-4-10-10c0-5-4-10-8-10c-5,0-9,7-9,15s4,12,8,10c3-3,12,2,19,10c10,12,9,15-4,15
		c-9,0-24-9-33-20c-10-11-22-20-27-20s1,11,13,24c17,18,19,25,9,29c-7,3,0,4,17,4c20-2,30,3,33,15c2,12-2,15-17,11c-25-6-30,21-6,31
		c22,8,18,25-7,36c-13,5-17,9-10,9c7,1,10,6,6,13c-5,7-11,5-21-7c-7-11-13-13-13-7c0,7-7,12-15,12s-15-3-15-8c0-4-13-8-29-8
		c-21-1-28,2-24,12c3,8,11,14,19,14c27,0,14,18-18,24l-33,7l34,29c23,19,37,26,42,19c9-16,21,5,13,25c-3,9-2,16,4,16c5,0,12,7,16,15
		c4,11-2,15-22,15c-19,0-23-3-14-9c9-5,3-8-17-7c-17,1-31,2-31,3c0,2,20,12,45,24c42,20,49,28,61,81c16,64,13,77-18,83
		c-34,8-54,45-32,58c23,13-13,42-48,38c-18-1-28,2-26,10c3,14-46,30-70,22c-10-3-13-1-7,4c19,15,16,35-9,58c-24,22-24,24-7,30
		c19,6,26,50,10,61c-5,3-2,16,7,29c14,22,14,24-4,34c-14,7-20,21-20,44c0,19-7,47-15,63c-8,17-13,47-10,72c2,23,1,42-3,42
		c-12,0-35-30-29-40c3-5,0-7-8-4s-39-19-72-51c-32-30-64-55-70-55s-30-9-54-21c-36-17-45-18-59-7c-36,29-53,50-55,67
		c-1,20,29,87,43,96c6,4,8,11,4,16c-3,5-2,8,3,7c4-2,8,1,8,6c0,6-13,11-30,13c-16,1-41,5-53,8c-20,5-22,8-11,21c10,13,10,17-2,24
		c-29,18-63,46-78,63c-9,9-21,17-28,17c-17,0-17-20,0-20c6,0,4-5-6-11c-18-11-34-9-153,13c-58,10-62,10-83-11c-12-12-24-33-25-46
		c-3-32-24-55-63-72c-40-16-43-26-7-17c24,6,26,5,19-17c-5-13-8-30-8-36c0-7-3-13-7-13s-27-16-51-35s-48-35-52-35c-10,0-37-26-37-34
		c0-3,4-6,10-6c18,0,60-43,60-62c0-25-37-102-58-121c-38-34-155-89-212-99l-60-10l5-44c3-26,1-44-5-44c-5,0-10-11-10-24
		c0-14-4-27-8-30c-4-2-9-19-10-38c-2-23-12-40-32-56c-17-13-28-28-25-33c4-5,2-9-4-9c-5,0-11,6-14,13c-3,8-12,5-30-12
		c-27-25-47-21-47,9c0,10-8,25-17,32c-10,7-19,20-19,28c-1,8-5,23-9,32c-6,15-3,16,22,9c57-17,58-17,58,9c0,22-4,25-31,24
		c-26-1-31,1-27,17c3,11,9,22,14,25s9,16,9,30c0,13,4,24,8,24c13,0,43,58,33,64c-5,3-44,8-87,11c-46,3-84,11-93,19s-35,20-58,28
		c-24,7-43,19-43,25c0,18-34,50-62,58c-12,4-38,13-56,21c-25,12-40,13-70,5c-20-6-40-11-43-11c-8,0,3,52,20,93c15,37,7,47-35,47
		c-19,0-34,3-34,6c0,9,91,124,98,124c4,0,34,20,66,45c33,24,72,47,87,50c15,4,30,12,33,20s21,17,40,21c20,3,36,10,36,15s6,8,13,7
		c6-2,11,3,9,11c-3,13,6,13,53-4c14-5,16-4,6,3s-5,12,21,21c18,6,40,20,48,31s22,20,30,20c9,0,21,5,27,11c7,7,33,13,60,15
		c54,5,159,53,197,91c22,22,87,63,100,63c3,0-22-26-55-57c-32-32-59-62-59-68s-20-17-45-24c-54-16-55-37-1-33c34,3,37,2,31-17
		c-8-28,17-28,68-1c20,11,44,20,52,20s22,9,32,20c21,21,65,18,57-5c-8-20,68-29,110-14c29,10,33,16,25,30c-5,10-15,16-23,13
		s-16,4-19,18c-6,21-43,50-90,70c-13,6-16,14-11,35c4,16,9,30,11,33c6,7,22-23,17-32c-5-7,1-9,39-12c6-1,12,8,13,19c3,60,3,59,23,34
		c18-22,20-22,26-6c4,9,15,17,24,17s29,7,45,15c15,8,34,15,40,15c7,0,23,11,36,25c18,19,20,27,12,38c-14,17,9,41,54,57
		c16,6,34,22,41,35c10,22,9,25-7,25c-35,0-31,19,6,29c28,8,43,7,65-4c16-9,40-12,57-9c37,7,53-13,18-22c-30-7-56-34-35-34
		c9-1,5-8-10-21c-13-11-20-23-16-27s10-1,12,6c3,6,11,12,19,12c13,0,18,12,15,33c0,4,4,7,9,7c16,0,90,51,90,62c0,6-8,7-17,3
		c-37-15-53-17-53-6c0,6,11,11,25,11c17,0,29,7,35,23c5,12,9,16,9,10c1-7,8-13,16-13c9,0,12-6,8-17s-3-14,5-9c7,4,12,3,12-1
		c0-5,12-16,28-25l27-17l-28-1c-16,0-26,4-22,9c9,16-15,24-31,11c-10-10-11-16-3-26c6-7,7-18,3-25c-5-9,2-10,28-5c27,5,35,3,35-9
		c0-11-11-15-42-15c-67,0-140-48-120-80c15-24,145,7,145,35c0,7,6,18,14,24c11,9,14,8,12-6c-1-14,8-19,37-21c27-2,37,1,37,12
		c0,8-10,16-22,18s-24,10-26,18c-4,13-3,13,10,2c13-10,17-10,21,0s6,10,6,1c1-7,10-13,21-13c15,0,19-5,16-22c-3-13-5-31-5-40
		c-1-10-9-18-18-18s-24-6-32-13c-9-8-38-22-66-32c-62-22-73-31-57-47c17-17,15-27-5-27c-10,0-35-4-55-9c-23-6-56-6-89,0
		c-43,8-58,6-88-9c-53-27-75-51-62-67c17-20,58-25,104-12c23,7,58,11,77,10s45-2,58-3c13,0,20-5,17-11c-3-5,1-10,10-10
		c10,0,15-7,13-17s7-29,19-43c13-14,23-32,23-42c0-24,15-30,44-17c21,10,29,8,52-10c15-11,37-21,50-21s46-9,74-20c27-11,50-18,50-15
		s9-4,21-16c24-24,50-11,42,21c-6,21-33,28-33,9c0-6-6-9-12-6c-7,2-12,13-10,23c1,11-8,29-23,42c-14,12-25,26-25,31s-9,11-20,14
		s-20,13-20,23c0,16,1,16,20-1c11-10,23-15,27-12c3,4,13-2,21-14c12-17,16-18,30-7c9,7,13,8,9,2c-4-7,3-14,17-18c13-3,26-15,29-26
		c6-22,31-27,43-9c3,6,0,15-7,20c-10,6-11,9-1,9c6,0,12,9,12,20c0,12,5,17,14,14c7-3,21,2,30,12c15,14,15,19,2,38c-10,16-11,27-4,40
		c11,20-3,36-33,36c-17,0-29,18-35,53c-2,10,2,17,11,17c18,0,19,11,3,29c-11,11-10,12,0,7c7-4,19-3,25,3c16,13,60-24,65-54
		c4-23,22-48,30-41c2,3,13,1,23-4c23-13,49-2,59,24c7,18,14,21,44,18c23-3,36,0,36,8c0,15,25,40,42,40c7,0,24,9,37,19l23,18l-28,20
		c-16,11-35,18-43,15s-11,0-7,7c4,6,1,11-7,11c-7,0-24,11-37,26c-17,17-31,23-47,19c-12-3-25,0-29,6c-3,6-22,17-40,25
		c-19,8-34,18-34,22c0,13,47,35,59,28c19-12,33,4,19,22c-10,12-10,16,0,19c33,12-9,67-63,82c-21,6-42,8-47,5c-4-3-8,2-8,11
		s-4,14-9,11s-11,3-14,14c-4,16-14,20-49,20c-24,0-50-6-58-12c-12-11-12-10-1,5c10,12,10,17,2,17c-7,0-9,5-6,10c3,6-1,10-9,10
		c-9,0-16,7-16,15s-10,17-22,19c-13,3-32,7-43,9c-14,3-12,5,8,6c15,1,27,7,27,14c0,29-35,44-115,50c-65,5-83,3-97-10
		c-17-15-18-15-18,0c0,21-49,22-140,2c-76-17-95-18-60-3l25,10l-25,10c-68,26-260-33-342-106c-10-9-21-16-25-16c-9-1-47-50-41-54
		c1-2,28-8,58-13l55-11l-59,2c-67,1-79-11-45-43c15-14,30-19,42-15c13,4,17,2,13-5c-8-12,1-14,59-13c22,1,33-1,25-5
		c-24-10-40-30-43-55c-2-13-10-23-18-23s-30-13-50-28c-37-28-55-35-44-17c3,6,0,10-8,10c-17,0-53-38-43-47c3-4-8-13-26-20
		c-25-11-33-11-40-1c-13,21-4,42,24,56c58,28,38,94-23,73c-28-9-30-9-24,9c5,16,2,20-14,20c-23,0-30,35-10,42c9,3,9,10,0,27
		s-10,26-1,36c15,18,3,55-18,56c-9,0,2,8,26,18c24,9,47,22,50,28c4,6,32,13,62,15c68,7,221,75,199,89c-8,5-32,9-54,9s-58,3-80,6
		c-48,6-121-8-118-24c2-6-4-9-13-5c-8,3-25-3-37-14s-30-23-41-27c-12-4-17-13-13-25c6-23-23-52-70-71c-18-7-33-15-33-19s-9-7-21-8
		c-28-2-69-30-69-47c0-7-11-19-25-26c-17-9-25-21-23-34c2-16-3-22-25-24c-17-2-36,3-47,13c-15,13-22,14-46,3c-16-7-33-18-37-25
		s-26-16-47-19c-43-7-55-30-18-36c12-2,23-9,26-17c3-9-2-11-17-6c-15,4-27-1-43-17c-21-22-32-24-136-26c-92-1-114,1-119,14
		c-3,9-12,12-24,9c-27-9-48,6-23,16c18,7,18,7,0,14c-11,5-21,3-26-5c-6-9-9-7-12,10c-1,13-9,25-17,28s-11,0-8-5s-7-8-24-5l-30,4
		l27,14c19,10,31,11,38,4c13-13,29-13,21,0c-3,5,0,7,9,4c8-3,17-11,19-18c3-8,28-13,67-14c35-1,69-7,77-13c11-9,19-7,36,10
		c13,11,29,21,35,21c14,0,15,6,3,29c-7,13-5,17,10,18c10,1,19-5,19-13s3-14,6-14c13,0,64,42,64,53s-42,34-92,50c-24,8-23,24,2,37
		c11,6,20,17,20,25c0,34,44,81,96,104c30,13,54,27,54,31c0,11-27,20-60,20c-35,0-90-21-72-27c6-3,12-9,12-14c0-6-8-6-19,1
		c-39,20-81,12-113-22c-17-18-34-43-39-55c-5-13-13-23-18-23c-11,0-9,19,3,38c5,8,1,21-10,33c-21,23-64,26-64,4c0-19-14-19-67,1
		c-34,13-48,14-75,5c-26-9-30-9-20,1c17,17,15,28-6,28c-10,0-25,11-32,25c-16,30-38,38-110,41c-30,1-98,5-150,7
		C6898,13216,6842,13216,6827,13213z M8755,13125c-16-9-38-30-49-48l-18-32l-10,25c-5,13-5,26-1,27c5,2,24,12,43,23
		c19,10,42,19,50,19S8772,13133,8755,13125z M9033,13109c5-19,11-21,49-16c37,5,39,5,18-5c-14-5-45-11-70-12c-44-2-45-1-27,17
		c10,10,15,22,12,27c-4,6-2,10,3,10S9030,13120,9033,13109z M8663,13053c-9-3-10-10-3-24c11-20-3-28-15-9c-9,15,2,40,17,39
		C8672,13059,8672,13057,8663,13053z M9255,13040c-3-5-14-10-23-9c-14,0-13,2,3,9C9262,13051,9262,13051,9255,13040z M9400,12960
		c-8-5-24-9-35-9c-16,1-16,2,5,9C9405,12971,9418,12971,9400,12960z M9504,12918c-5-8-2-9,11-4c11,4,22,2,26-6c6-10-9-16-58-25
		c-78-14-95-11-28,6c25,6,44,15,44,19c-2,12,1,22,7,22C9509,12930,9508,12925,9504,12918z M8507,12914c-3-3-12-4-19-1c-8,3-5,6,6,6
		C8505,12920,8511,12917,8507,12914z M9460,12906c0-2-9-6-20-9s-18-1-14,4C9431,12910,9460,12914,9460,12906z M6087,12894
		c-3-3-12-4-19-1c-8,3-5,6,6,6C6085,12900,6091,12897,6087,12894z M8690,12890c0-5-10-10-22-10c-19,0-20,2-8,10
		C8679,12903,8690,12903,8690,12890z M8838,12893c-10-2-26-2-35,0c-10,3-2,5,17,5S8847,12896,8838,12893z M6010,12880
		c-8-5-22-9-30-9c-10,0-8,3,5,9C6012,12892,6028,12892,6010,12880z M8190,12880c0-5-4-10-10-10c-5,0-10,5-10,10c0,6,5,10,10,10
		C8186,12890,8190,12886,8190,12880z M8020,12858c0-4-11-15-25-24c-31-20-33-38-4-31c12,3,18,2,13-2c-11-9-87-36-127-45
		c-17-4-31-16-37-31c-7-17-14-23-26-18c-16,6-16,7,1,19c10,8,14,18,9,26c-4,7-4,10,1,6c10-9,47,10,40,21c-2,5,16,14,41,20
		s42,16,39,21c-4,6-11,7-17,4c-6-4-8,1-6,12c2,13,11,18,25,16c12-2,24,1,27,7C7981,12870,8020,12870,8020,12858z M5790,12845
		c-46-18-72-18-40-1c14,8,36,14,50,14C5822,12858,5820,12857,5790,12845z M9540,12852c0-4-16-6-35-4s-35,6-35,8s16,4,35,4
		S9540,12856,9540,12852z M8224,12818c-6-21-25-41-31-34c-5,5,22,56,30,56C8228,12840,8228,12830,8224,12818z M9005,12820
		c-3-5-11-10-16-10c-6,0-7,5-4,10c3,6,11,10,16,10C9007,12830,9008,12826,9005,12820z M8700,12810c0-5-5-10-11-10c-5,0-7,5-4,10
		c3,6,8,10,11,10C8698,12820,8700,12816,8700,12810z M9067,12814c-3-3-12-4-19-1c-8,3-5,6,6,6C9065,12820,9071,12817,9067,12814z
		 M8375,12751c-3-6-11-11-17-11s-6,6,2,15C8374,12772,8386,12768,8375,12751z M7750,12746c0-2-7-6-15-10c-8-3-15-1-15,4
		c0,6,7,10,15,10S7750,12748,7750,12746z M9088,12743c-10-2-26-2-35,0c-10,3-2,5,17,5S9097,12746,9088,12743z M7110,12694
		c0-2-9-4-21-4c-11,0-18,4-14,10C7080,12708,7110,12703,7110,12694z M7807,12684c-3-3-12-4-19-1c-8,3-5,6,6,6
		C7805,12690,7811,12687,7807,12684z M6415,12670c-11-4-35-14-54-21c-33-12-33-13-10-22c13-5,47-6,74-2l50,6l-32-20
		c-18-11-48-20-71-19c-48,0-84-10-77-23c5-8-16-14-38-10c-4,1-24-6-44-14s-38-13-41-10c-8,8,69,37,84,31c7-3,16,0,20,6
		c12,19-76,0-108-24c-24-16-34-18-51-10c-18,9-19,11-4,11c9,1,17,6,17,11c0,6,9,10,19,10c11,0,26,7,35,15c8,8,23,14,33,13
		c10,0,26,0,37,0c37,4-4,32-43,30l-36-1l33-4c17-2,32-8,32-14c0-5-1-9-2-9c-2,1-28,7-58,14l-55,12l80,13c44,7,109,19,145,26
		C6426,12681,6443,12682,6415,12670z M9200,12671c0-5,12-12,26-15c35-9,20-22-33-29c-36-4-41-3-35,12
		C9170,12670,9200,12693,9200,12671z M9714,12661c4-5-3-7-14-4c-23,6-26,13-6,13C9702,12670,9711,12666,9714,12661z M4057,12644
		c-3-3-12-4-19-1c-8,3-5,6,6,6C4055,12650,4061,12647,4057,12644z M8337,12608c0-18-2-27-4-20c-3,6-14,12-25,12c-12,0-18,3-15,7
		c4,3,2,12-4,20c-9,10-5,13,18,13C8334,12640,8337,12637,8337,12608z M8095,12574c20-15,20-16-4-12c-14,2-26,9-29,16
		C8057,12594,8071,12593,8095,12574z M3845,12510c-3-5-12-10-18-10c-7,0-6,4,3,10C3849,12522,3853,12522,3845,12510z M8860,12499
		c0-5-7-9-15-9c-9,0-12,6-9,15C8842,12520,8860,12516,8860,12499z M8985,12420c-3-5-10-10-16-10c-5,0-9,5-9,10c0,6,7,10,16,10
		C8984,12430,8988,12426,8985,12420z M6393,12301c17-15,68-9,132,13c11,4-2-5-30-20c-27-15-72-31-100-35c-27-5-55-15-60-23
		c-13-17-163-31-185-16c-13,9-13,10,0,11c8,1,23,0,33-1s30,6,45,16s43,20,62,24c31,5,35,9,38,37c3,30,5,32,25,20
		C6365,12320,6383,12309,6393,12301z M9297,12264c-3-3-12-4-19-1c-8,3-5,6,6,6C9295,12270,9301,12267,9297,12264z M4140,12224
		c0-2-7-4-15-4s-15,4-15,10c0,5,7,7,15,4C4133,12230,4140,12226,4140,12224z M4057,12214c-3-3-12-4-19-1c-8,3-5,6,6,6
		C4055,12220,4061,12217,4057,12214z M4015,12200c-9-14-45-32-45-23c0,7,24,22,48,32C4020,12209,4018,12206,4015,12200z M3693,12103
		c-7-2-21-2-30,0c-10,3-4,5,12,5C3692,12108,3699,12106,3693,12103z M3750,12106c0-2-9-6-20-9s-18-1-14,4
		C3721,12110,3750,12114,3750,12106z M4768,12025c-3-3-9,2-12,12c-6,14-5,15,5,6C4768,12036,4771,12028,4768,12025z M4785,12000
		c3-5,2-10-4-10c-5,0-13,5-16,10c-3,6-2,10,4,10C4774,12010,4782,12006,4785,12000z M4735,11980c-4-6-2-17,4-24c8-9,7-13-4-13
		c-8,0-12,4-9,8c2,4-1,11-7,15c-8,4-7,9,2,15C4739,11992,4742,11992,4735,11980z M3450,11970c0-5-2-10-4-10c-3,0-8,5-11,10
		c-3,6-1,10,4,10C3445,11980,3450,11976,3450,11970z M4820,11925c-14-17-46-20-54-6c-4,5,2,7,13,4c10-3,22,0,25,6c4,6,12,11,18,11
		C4829,11940,4828,11934,4820,11925z M4806,11888c4-6,3-8-4-4c-6,3-15-1-20-10c-6-11-11-13-16-5c-4,6-2,11,4,11s8,5,5,10
		c-3,6,1,10,9,10S4802,11895,4806,11888z M4740,11856c0-2-8-10-17-17c-16-13-17-12-4,4S4740,11864,4740,11856z M4780,11815
		c0-8-2-15-4-15s-6,7-10,15c-3,8-1,15,4,15C4776,11830,4780,11823,4780,11815z M4847,11824c-3-3-12-4-19-1c-8,3-5,6,6,6
		C4845,11830,4851,11827,4847,11824z M4728,11747c-6-12-12-23-13-24c-1-2-2,10-2,26c0,20,4,28,13,24
		C4737,11769,4737,11763,4728,11747z M6826,11629c8-14-16-159-27-159c-5,0-9,3-9,8c0,4-4,13-9,21c-7,11-13,12-24,3c-10-9-14-9-14,1
		c0,6-3,22-7,35c-6,17-3,24,16,31l23,10h-22c-30,1-29,7,5,36C6787,11641,6815,11647,6826,11629z M9330,11636c0-2-15-9-32-15
		c-30-10-31-9-14,4C9302,11639,9330,11645,9330,11636z M4750,11600c0-5-2-10-4-10c-3,0-8,5-11,10c-3,6-1,10,4,10
		C4745,11610,4750,11606,4750,11600z M6800,11425c0-2-13-18-30-35c-19-19-30-25-30-16c0,8,12,24,26,35
		C6793,11430,6800,11434,6800,11425z M4856,11304c0-11,11-21,32-28c26-9,30-14,20-24c-9-9-9-12,0-12c7,0,12-10,12-22c0-17-3-19-9-9
		c-5,8-14,10-21,6c-8-5-11-3-8,6c3,8-7,26-21,40c-28,27-37,59-16,59C4852,11320,4857,11313,4856,11304z M7333,11214c9-3,12-14,10-29
		c-6-27,25-49,54-38c15,6,16,4,6-9c-7-8-10-18-7-21c4-3,3-14-1-24c-10-23-12-29-14-48c0-8-6-15-12-15s-9,7-5,15c4,12-3,13-42,8
		c-26-3-55-10-64-15c-22-11-65,0-72,18c-3,8-13,14-23,14c-12,0-7,7,16,21c37,22,35,35-4,25c-16-4-23-11-19-18s3-8-4-4
		c-6,4-26-1-44-10c-18-10-46-21-63-25c-16-4-41-11-55-15c-25-6-25-6-5,10c19,17,18,17-22,13c-24-3-43-4-43-2c0,9,111,64,153,75
		c26,7,50,17,53,21c3,5,10,9,17,9c6,0,2-7-9-15c-10-8-14-15-7-15c21,0,63,19,63,29c0,6-6,8-14,5s-17,0-22,7c-4,7-3,10,2,6
		c5-3,34,3,64,13C7277,11220,7308,11224,7333,11214z M4885,11179c-4-5-21-8-38-8c-21,1-25,3-12,6c11,3,24,9,29,14
		C4875,11201,4892,11192,4885,11179z M8725,11150c8-13-5-13-25,0c-13,8-13,10,2,10C8711,11160,8722,11156,8725,11150z M8830,11014
		c0-2-9-4-21-4c-11,0-18,4-14,10C8800,11028,8830,11023,8830,11014z M7515,10995c6-2-11-4-37-4c-27-1-48,3-48,7
		C7430,11005,7492,11003,7515,10995z M7330,10984c0-9-63-68-76-72c-33-9-44-17-77-56c-41-49-57-84-57-123c0-17-15-40-44-69
		c-48-49-75-56-77-21c-3,58,41,141,126,235c42,47,51,72,15,40c-8-7-4,0,10,15c15,17,31,26,42,24c9-3,25,1,35,8
		C7253,10983,7330,10997,7330,10984z M7500,10954c33-14,36-14,52,5c25,31,54,27,67-10c24-69-20-108-56-49c-22,38-42,40-35,4
		c4-21-2-33-26-54c-17-14-34-38-37-53c-6-22-42-57-59-57c-3,0-4,19-3,43c2,37,0,42-18,39c-11-2-27-10-36-18c-8-8-19-14-24-14
		c-4,0,13,20,39,45s44,50,41,55s-1,11,5,15c17,11,11,25-15,37c-14,6-25,18-25,26c0,11,9,13,48,7C7444,10971,7481,10962,7500,10954z
		 M7524,10968c-3-4-9-8-15-8c-5,0-9,4-9,8c0,5,7,9,15,9S7527,10973,7524,10968z M7850,10813c-1-33-61-56-125-48c-28,4-68,2-88-3
		c-48-13-48,2,1,25c24,12,60,18,105,18c37,0,67,3,67,8c0,4,9,7,20,7S7850,10817,7850,10813z M7620,10715c0-7-79-46-150-72
		c-97-37-138-45-160-33c-26,14-26,30,0,30c11,0,20-6,20-12c0-10,2-10,8-1c4,7,34,26,67,42c48,25,67,29,105,25c32-4,41-3,31,4
		c-11,8-7,11,20,15c19,2,40,5,47,5C7614,10719,7620,10718,7620,10715z M7365,10660c-3-5-15-10-26-10c-10,0-19,5-19,10
		c0,6,12,10,26,10S7369,10666,7365,10660z M7645,10299c11-17-1-21-15-4c-8,9-8,15-2,15S7642,10305,7645,10299z M7645,10130
		c3-6-1-7-9-4c-18,7-21,14-7,14C7635,10140,7642,10136,7645,10130z M6465,9630c3-5-1-10-10-10s-13,5-10,10c3,6,8,10,10,10
		S6462,9636,6465,9630z M6578,8006c10-23,9-24-24-23c-29,2-32,4-18,14c16,12,16,13,1,19c-10,3-17,15-17,25c0,18,2,18,23,4
		C6556,8037,6572,8019,6578,8006z"/>
	<path class="st5" d="M8135,13188c-27-5-68-10-90-11c-22-2-58-9-79-16c-31-11-36-15-23-23c24-13,9-38-24-38c-16,0-29,5-29,10
		c0,13-36,13-61,0c-25-14-14-35,32-58c25-12,34-23,33-40c-1-27,1-27,124-1c51,10,70,20,107,56c25,23,45,52,45,63s7,20,15,20
		c16,0,17,6,7,30C8186,13193,8176,13194,8135,13188z M8150,13119c13-9,13-10-2-6c-9,3-18,1-21-6c-2-6-6-4-10,6
		C8110,13132,8127,13136,8150,13119z"/>
	<path class="st5" d="M3703,12016c-28-12-55-25-59-29s-17-7-29-7c-13,0-28-7-35-15s-16-13-20-10c-13,8-70-16-80-34
		c-14-27,3-45,36-36c16,5,36,9,44,11s23,7,35,13c11,6,37,17,58,25c32,13,42,26,39,56c0,3,15,4,34,2c31-4,34-2,34,22c0,14-1,26-2,25
		C3756,12039,3732,12028,3703,12016z"/>
	<path class="st5" d="M6890,9019c-14-4-46-13-72-20c-26-6-55-20-64-30c-9-11-24-19-33-19c-14,0-14-2-1-10s11-11-7-16
		c-30-8-29-20,1-26c14-3,34,3,47,13s31,19,40,19s26,9,39,20c16,14,36,20,64,19c23-1,33-3,24-6c-10-2-18-8-18-13c0-9,62-30,90-30
		c8,0,38-11,65-25c30-14,59-22,73-18c18,4,22,1,22-20c0-13,7-30,15-37s15-18,15-25s7-18,15-25c9-7,14-19,11-26c-7-17,204-12,249,5
		l29,12l-29,24c-17,13-42,24-56,25c-18,0-26,5-25,16s-13,21-42,29c-42,13-102,63-102,87c0,6-3,9-6,5c-4-3-13,0-21,8
		c-17,18-47,20-37,3c5-8,2-9-10-5c-10,4-24,7-32,7s-13,5-11,12C7129,9002,6951,9038,6890,9019z M7255,8790c4-6-7-10-24-10
		s-31,5-31,10c0,6,11,10,24,10C7238,8800,7252,8796,7255,8790z"/>
	<path class="st5" d="M7552,8740c-33-16-34-30,0-30c13,0,18-8,18-28c0-15,5-33,12-40c19-19-18-26-79-15c-48,9-55,8-63-8
		c-8-14-4-21,22-33c34-17,52-21,44-8c-2,4,22,8,55,7c55,0,63-3,81-28l20-28l25,35c24,36,38,44,45,26c2-6,14-4,31,5c29,15,90,12,95-5
		c2-5,11-10,20-10c8,0,12,3,9,7c-4,3,1,12,11,19c16,12,14,16-20,49c-20,19-46,35-57,35c-12,0-21,6-21,14c0,20-82,40-136,31
		c-33-5-50-3-62,8C7587,8755,7580,8754,7552,8740z"/>
</g>
</svg>
